<?xml version="1.0" encoding="utf-8"?>
<!-- Generator: Adobe Illustrator 17.0.1, SVG Export Plug-In . SVG Version: 6.00 Build 0)  -->
<!DOCTYPE svg PUBLIC "-//W3C//DTD SVG 1.1//EN" "http://www.w3.org/Graphics/SVG/1.1/DTD/svg11.dtd">
<svg version="1.1" xmlns="http://www.w3.org/2000/svg" xmlns:xlink="http://www.w3.org/1999/xlink" x="0px" y="0px"
	 width="841.89px" height="595.28px" viewBox="0 0 841.89 595.28" enable-background="new 0 0 841.89 595.28" xml:space="preserve">
<g id="Layer_7">
	<rect fill="#C6C4C5" width="841.89" height="595.28"/>
</g>
<g id="Layer_1">
	
		<rect x="33.206" y="186.313" fill="#FFFFFF" stroke="#000000" stroke-width="5" stroke-miterlimit="10" width="221.752" height="237.479"/>
	
		<rect x="46.512" y="240.417" fill="none" stroke="#000000" stroke-width="5" stroke-miterlimit="10" width="199.949" height="165.388"/>
	<line fill="none" x1="246.461" y1="275.084" x2="191.212" y2="275.084"/>
	<line fill="none" stroke="#000000" stroke-width="5" stroke-miterlimit="10" x1="114" y1="240.773" x2="114" y2="406.161"/>
	
		<line display="none" fill="none" stroke="#000000" stroke-width="5" stroke-miterlimit="10" x1="113.041" y1="363.621" x2="245.503" y2="363.621"/>
	
		<rect x="353.899" y="190.945" fill="#FFFFFF" stroke="#000000" stroke-width="5" stroke-miterlimit="10" width="44.778" height="214.86"/>
	
		<rect x="410.593" y="190.945" fill="#FFFFFF" stroke="#000000" stroke-width="5" stroke-miterlimit="10" width="44.778" height="214.86"/>
	
		<rect x="614.14" y="192.474" fill="#FFFFFF" stroke="#000000" stroke-width="5" stroke-miterlimit="10" width="44.778" height="214.86"/>
	<polygon fill="#FFFFFF" stroke="#000000" stroke-width="5" stroke-miterlimit="10" points="320.684,257.085 267.423,257.085 
		267.423,270.72 320.684,270.72 320.684,282.096 340.851,263.48 320.684,243.83 	"/>
	<polygon fill="#FFFFFF" stroke="#000000" stroke-width="5" stroke-miterlimit="10" points="287.59,330.313 340.851,330.313 
		340.851,316.679 287.59,316.679 287.59,305.303 267.423,323.918 287.59,343.568 	"/>
	<g>
		
			<rect x="471.937" y="168.583" fill="#FFFFFF" stroke="#000000" stroke-width="5" stroke-miterlimit="10" width="124.621" height="259.585"/>
		
			<line fill="#FFFFFF" stroke="#000000" stroke-width="5" stroke-miterlimit="10" x1="471.937" y1="213.031" x2="596.558" y2="213.031"/>
	</g>
	<g>
		<g>
			<polygon fill="#CDCCCC" points="94.873,155.586 94.873,132.104 97.911,132.104 112.28,151.02 112.28,132.104 115.153,132.104 
				115.153,155.586 112.115,155.586 97.747,136.504 97.747,155.586 			"/>
			<path fill="#CDCCCC" d="M138.469,154.666c-1.893,0.724-3.936,1.084-6.125,1.084c-8.505,0-12.759-4.077-12.759-12.234
				c0-7.718,4.105-11.578,12.314-11.578c2.355,0,4.545,0.329,6.569,0.987v2.627c-2.024-0.766-4.105-1.15-6.241-1.15
				c-6.403,0-9.604,3.039-9.604,9.114c0,6.513,3.151,9.771,9.458,9.771c1.006,0,2.122-0.132,3.349-0.396v-7.98h3.037
				L138.469,154.666L138.469,154.666z"/>
			<path fill="#CDCCCC" d="M143.314,146.522v-14.417h3.036v14.416c0,4.51,2.245,6.768,6.734,6.768c4.488,0,6.733-2.258,6.733-6.768
				v-14.416h3.037v14.416c0,6.155-3.257,9.23-9.77,9.23C146.571,155.752,143.314,152.676,143.314,146.522z"/>
			<polygon fill="#CDCCCC" points="171.31,132.104 171.31,153.124 183.595,153.124 183.595,155.586 168.274,155.586 
				168.274,132.104 			"/>
			<polygon fill="#CDCCCC" points="187.978,155.587 184.826,155.587 196.5,129.007 208.175,155.587 204.81,155.587 201.771,148.196 
				194.006,148.196 194.843,145.736 200.754,145.736 196.37,135.094 			"/>
			<path fill="#CDCCCC" d="M211.377,155.586v-23.482h10.017c4.467,0,6.7,1.878,6.7,5.632c0,3.055-2.183,5.316-6.552,6.781
				l8.062,11.068h-4.007l-7.47-10.558v-1.985c4.487-0.713,6.731-2.437,6.731-5.173c0-2.167-1.248-3.252-3.742-3.252h-6.701v20.97
				L211.377,155.586L211.377,155.586L211.377,155.586z"/>
			<path fill="#CDCCCC" d="M240.985,132.104v16.717c0,4.51-2.655,6.765-7.965,6.765v-2.463c3.285,0,4.927-1.436,4.927-4.302v-16.717
				H240.985z"/>
			<path fill="#CDCCCC" d="M246.404,154.765v-2.792c2.464,0.876,5.123,1.315,7.981,1.315c4.04,0,6.06-1.478,6.06-4.436
				c0-2.514-1.49-3.776-4.467-3.776h-3.022c-4.914,0-7.374-2.133-7.374-6.403c0-4.488,3.149-6.734,9.445-6.734
				c2.736,0,5.281,0.331,7.635,0.987v2.792c-2.355-0.877-4.899-1.315-7.635-1.315c-4.27,0-6.405,1.424-6.405,4.27
				c0,2.517,1.444,3.776,4.333,3.776h3.022c5.001,0,7.505,2.136,7.505,6.403c0,4.599-3.032,6.899-9.098,6.899
				C251.527,155.751,248.868,155.421,246.404,154.765z"/>
			<polygon fill="#010101" points="95.641,154.819 95.641,131.337 98.679,131.337 113.047,150.254 113.047,131.337 115.921,131.337 
				115.921,154.819 112.883,154.819 98.514,135.737 98.514,154.819 			"/>
			<path fill="#010101" d="M139.238,153.899c-1.893,0.724-3.935,1.084-6.125,1.084c-8.505,0-12.759-4.077-12.759-12.233
				c0-7.718,4.105-11.578,12.316-11.578c2.353,0,4.544,0.33,6.568,0.987v2.627c-2.024-0.766-4.105-1.15-6.24-1.15
				c-6.403,0-9.605,3.039-9.605,9.114c0,6.513,3.152,9.772,9.458,9.772c1.006,0,2.124-0.131,3.351-0.396v-7.98h3.036
				L139.238,153.899L139.238,153.899z"/>
			<path fill="#010101" d="M144.082,145.754v-14.418h3.036v14.418c0,4.51,2.245,6.766,6.734,6.766c4.487,0,6.732-2.257,6.732-6.766
				v-14.418h3.037v14.418c0,6.154-3.257,9.228-9.77,9.228C147.339,154.982,144.082,151.909,144.082,145.754z"/>
			<polygon fill="#010101" points="172.078,131.336 172.078,152.355 184.362,152.355 184.362,154.818 169.042,154.818 
				169.042,131.336 			"/>
			<polygon fill="#010101" points="188.746,154.819 185.594,154.819 197.269,128.238 208.944,154.819 205.576,154.819 
				202.539,147.429 194.773,147.429 195.611,144.966 201.521,144.966 197.138,134.324 			"/>
			<path fill="#010101" d="M212.146,154.819v-23.482h10.017c4.467,0,6.698,1.877,6.698,5.632c0,3.054-2.181,5.316-6.55,6.781
				l8.063,11.069h-4.008l-7.469-10.558v-1.987c4.488-0.713,6.732-2.436,6.732-5.173c0-2.167-1.249-3.251-3.745-3.251h-6.7v20.969
				C215.184,154.819,212.146,154.819,212.146,154.819z"/>
			<path fill="#A51E22" d="M241.754,131.336v16.717c0,4.511-2.655,6.765-7.965,6.765v-2.462c3.284,0,4.927-1.436,4.927-4.303
				v-16.717H241.754z"/>
			<path fill="#A51E22" d="M247.171,153.996v-2.791c2.464,0.875,5.123,1.315,7.981,1.315c4.039,0,6.06-1.479,6.06-4.435
				c0-2.515-1.49-3.776-4.467-3.776h-3.022c-4.914,0-7.373-2.135-7.373-6.405c0-4.488,3.148-6.734,9.445-6.734
				c2.736,0,5.281,0.331,7.635,0.987v2.792c-2.355-0.877-4.9-1.315-7.635-1.315c-4.27,0-6.405,1.424-6.405,4.27
				c0,2.517,1.443,3.776,4.333,3.776h3.022c5.001,0,7.505,2.135,7.505,6.404c0,4.598-3.032,6.898-9.098,6.898
				C252.295,154.982,249.635,154.652,247.171,153.996z"/>
			<path fill="#010101" d="M219.113,167.353l-1.115-3.391h-0.793l1.539,4.285c-0.036,0.093-0.095,0.235-0.174,0.427
				c-0.08,0.192-0.127,0.297-0.14,0.318c-0.041,0.062-0.093,0.115-0.154,0.158c-0.061,0.043-0.156,0.064-0.285,0.064
				c-0.041,0-0.09-0.004-0.144-0.012c-0.054-0.008-0.142-0.029-0.264-0.062v0.638c0.078,0.021,0.144,0.035,0.196,0.043
				c0.053,0.007,0.129,0.011,0.228,0.011c0.404,0,0.689-0.116,0.854-0.35c0.166-0.233,0.45-0.88,0.854-1.942
				c0.171-0.451,0.383-1.034,0.637-1.749c0.339-0.952,0.559-1.561,0.656-1.828h-0.773L219.113,167.353z M214.972,167.638
				c-0.504,0-0.849-0.229-1.033-0.688c-0.099-0.243-0.148-0.561-0.148-0.952c0-0.541,0.12-0.93,0.361-1.166
				c0.24-0.235,0.52-0.353,0.84-0.353c0.366,0,0.644,0.144,0.833,0.431c0.189,0.288,0.283,0.65,0.283,1.088
				c0,0.493-0.094,0.889-0.283,1.189C215.636,167.488,215.351,167.638,214.972,167.638z M213.149,168.124h0.645v-0.532
				c0.148,0.2,0.287,0.345,0.418,0.435c0.218,0.153,0.486,0.229,0.804,0.229c0.567,0,1.011-0.218,1.331-0.653
				c0.32-0.435,0.48-0.982,0.48-1.64c0-0.694-0.162-1.22-0.486-1.576c-0.324-0.356-0.746-0.534-1.266-0.534
				c-0.25,0-0.481,0.052-0.695,0.158c-0.213,0.105-0.396,0.257-0.55,0.457v-2.072h-0.68L213.149,168.124L213.149,168.124z"/>
		</g>
		<g>
			<polygon fill="#B4B4B4" points="63.695,113.253 36.271,122.904 40.605,158.835 63.725,171.542 86.964,158.663 91.296,122.733 			
				"/>
			<polygon fill="#A51E22" points="88.56,124.81 63.631,116.309 63.631,168.506 84.523,156.944 			"/>
			<polygon fill="#DC2226" points="39.348,124.963 43.062,157.097 63.631,168.506 63.631,116.308 			"/>
			<path fill="#F3F3F3" d="M70.493,144.096l-6.862,3.209h-7.232l-3.4,8.504l-6.324,0.117l16.956-37.721L70.493,144.096z
				 M69.83,142.48l-6.153-12.182l-5.047,11.972h5.001L69.83,142.48z"/>
			<polygon fill="#B4B4B4" points="63.631,118.204 63.676,130.299 69.404,142.28 63.644,142.28 63.631,147.297 71.595,147.305 
				75.317,155.927 81.368,156.039 			"/>
		</g>
		<path fill="#010101" d="M252.718,162.327c0.302,0.25,0.934,0.776,0.934,1.778c0,0.974-0.553,1.435-1.106,1.87
			c-0.171,0.171-0.368,0.356-0.368,0.645c0,0.289,0.197,0.447,0.342,0.566l0.475,0.368c0.579,0.487,1.105,0.935,1.105,1.844
			c0,1.237-1.198,2.488-3.463,2.488c-1.909,0-2.831-0.908-2.831-1.883c0-0.474,0.236-1.145,1.014-1.606
			c0.816-0.5,1.922-0.565,2.514-0.606c-0.185-0.237-0.395-0.487-0.395-0.895c0-0.224,0.066-0.356,0.132-0.514
			c-0.145,0.013-0.29,0.026-0.422,0.026c-1.395,0-2.185-1.04-2.185-2.067c0-0.606,0.277-1.278,0.842-1.764
			c0.751-0.619,1.646-0.724,2.357-0.724h2.712l-0.843,0.474L252.718,162.327 M251.782,168.173c-0.105-0.014-0.171-0.014-0.302-0.014
			c-0.119,0-0.83,0.027-1.383,0.211c-0.29,0.105-1.132,0.421-1.132,1.356c0,0.935,0.909,1.607,2.318,1.607
			c1.264,0,1.936-0.607,1.936-1.422C253.218,169.238,252.784,168.884,251.782,168.173z M252.164,165.671
			c0.303-0.303,0.329-0.724,0.329-0.961c0-0.948-0.566-2.423-1.659-2.423c-0.343,0-0.711,0.171-0.922,0.435
			c-0.224,0.277-0.289,0.631-0.289,0.974c0,0.882,0.514,2.343,1.646,2.343C251.599,166.04,251.953,165.882,252.164,165.671z
			 M244.429,167.962c-2.09,0-3.207-1.63-3.207-3.103c0-1.722,1.407-3.194,3.405-3.194c1.932,0,3.141,1.511,3.141,3.102
			C247.768,166.319,246.572,167.962,244.429,167.962 M246.072,166.897c0.316-0.421,0.395-0.946,0.395-1.46
			c0-1.156-0.552-3.365-2.183-3.365c-0.434,0-0.868,0.171-1.183,0.448c-0.513,0.46-0.605,1.038-0.605,1.604
			c0,1.301,0.644,3.443,2.235,3.443C245.244,167.567,245.77,167.318,246.072,166.897z M237.304,167.962
			c-2.09,0-3.207-1.63-3.207-3.103c0-1.722,1.407-3.194,3.405-3.194c1.932,0,3.141,1.511,3.141,3.102
			C240.643,166.319,239.447,167.962,237.304,167.962 M238.947,166.897c0.316-0.421,0.395-0.946,0.395-1.46
			c0-1.156-0.552-3.365-2.182-3.365c-0.433,0-0.868,0.171-1.183,0.448c-0.513,0.46-0.605,1.038-0.605,1.604
			c0,1.301,0.644,3.443,2.235,3.443C238.119,167.567,238.645,167.318,238.947,166.897z M233.092,167.756v-1.613
			c0-0.132,0.013-0.515,0.026-0.634c0.027-0.105,0.039-0.132,0.132-0.211l0.343-0.33h-2.802l-1.057,0.568l1.995-0.105v2.127
			c-0.396,0.159-0.832,0.33-1.679,0.33c-2.881,0-4.678-2.339-4.678-4.823c0-2.313,1.573-3.899,3.661-3.899
			c1.559,0,2.379,0.806,2.828,1.242l-0.33,0.529l0.462-0.105l1.097-1.044c-0.291-0.198-0.753-0.542-1.745-0.82
			c-0.621-0.172-1.308-0.277-2.021-0.277c-3.37,0-5.339,2.378-5.339,4.942c0,2.102,1.387,4.785,5.035,4.785
			c0.727,0,1.414-0.105,2.18-0.225L233.092,167.756 M256.895,167.376c-0.437-0.04-0.528-0.119-0.528-0.634v-7.481
			c0.002-0.029,0.005-0.058,0.008-0.085c0.053-0.462,0.185-0.542,0.595-0.78h-1.89l-0.991,0.476h1.011v0.006l-0.001-0.005v8.159
			c0,0.264-0.052,0.304-0.357,0.7h2.339l0.489-0.29C257.345,167.415,257.12,167.402,256.895,167.376 M262.273,167.497
			c-0.144,0.079-0.289,0.171-0.432,0.236c-0.434,0.197-0.88,0.249-1.274,0.249c-0.42,0-1.076-0.027-1.746-0.512
			c-0.931-0.656-1.339-1.785-1.339-2.77c0-2.034,1.654-3.031,3.005-3.031c0.472,0,0.959,0.118,1.353,0.368
			c0.656,0.432,0.826,0.997,0.918,1.298l-3.084,1.247l-1.011,0.079c0.328,1.667,1.457,2.638,2.704,2.638
			c0.67,0,1.155-0.236,1.601-0.459L262.273,167.497 M261.039,163.585c0.249-0.092,0.38-0.17,0.38-0.354
			c0-0.524-0.59-1.129-1.299-1.129c-0.526,0-1.509,0.407-1.509,1.824c0,0.223,0.026,0.459,0.039,0.696L261.039,163.585z"/>
	</g>
	<g>
		<path d="M478.763,176.416c1.706-0.349,4.15-0.543,6.478-0.543c3.607,0,5.935,0.659,7.563,2.133
			c1.318,1.164,2.056,2.948,2.056,4.965c0,3.452-2.172,5.741-4.926,6.671v0.117c2.017,0.698,3.219,2.56,3.84,5.275
			c0.854,3.646,1.474,6.167,2.017,7.176h-3.491c-0.426-0.737-1.008-2.987-1.745-6.245c-0.775-3.607-2.172-4.965-5.236-5.082h-3.181
			v11.326h-3.374V176.416z M482.137,188.324h3.452c3.607,0,5.896-1.978,5.896-4.965c0-3.375-2.443-4.848-6.012-4.887
			c-1.629,0-2.793,0.155-3.336,0.311V188.324z"/>
		<path d="M516.655,192.668c0,6.943-4.81,9.969-9.348,9.969c-5.081,0-8.999-3.724-8.999-9.658c0-6.284,4.111-9.969,9.31-9.969
			C513.01,183.01,516.655,186.928,516.655,192.668z M501.761,192.862c0,4.111,2.366,7.214,5.702,7.214
			c3.258,0,5.702-3.064,5.702-7.292c0-3.181-1.591-7.215-5.625-7.215C503.507,185.57,501.761,189.293,501.761,192.862z"/>
		<path d="M536.667,197.09c0,1.939,0.038,3.646,0.154,5.12h-3.025l-0.193-3.064h-0.078c-0.892,1.513-2.87,3.491-6.206,3.491
			c-2.947,0-6.478-1.629-6.478-8.223v-10.977h3.414v10.396c0,3.568,1.086,5.973,4.188,5.973c2.289,0,3.879-1.59,4.5-3.103
			c0.193-0.504,0.31-1.125,0.31-1.746v-11.52h3.414V197.09z"/>
		<path d="M546.438,178.045v5.392h4.887v2.599h-4.887v10.124c0,2.327,0.659,3.646,2.56,3.646c0.893,0,1.552-0.116,1.979-0.233
			l0.155,2.56c-0.66,0.271-1.707,0.465-3.025,0.465c-1.591,0-2.871-0.504-3.686-1.435c-0.97-1.008-1.318-2.676-1.318-4.887v-10.24
			h-2.909v-2.599h2.909v-4.499L546.438,178.045z"/>
		<path d="M556.832,193.444c0.077,4.616,3.025,6.517,6.438,6.517c2.443,0,3.918-0.427,5.197-0.97l0.582,2.443
			c-1.202,0.543-3.258,1.164-6.245,1.164c-5.779,0-9.231-3.801-9.231-9.464s3.336-10.124,8.805-10.124
			c6.129,0,7.758,5.392,7.758,8.844c0,0.698-0.077,1.241-0.116,1.59H556.832z M566.839,191c0.039-2.172-0.892-5.547-4.732-5.547
			c-3.452,0-4.965,3.181-5.236,5.547H566.839z"/>
		<path d="M573.896,198.719c1.009,0.659,2.793,1.357,4.499,1.357c2.482,0,3.646-1.241,3.646-2.793c0-1.629-0.97-2.521-3.491-3.452
			c-3.374-1.203-4.965-3.064-4.965-5.314c0-3.026,2.443-5.508,6.478-5.508c1.9,0,3.568,0.543,4.616,1.164l-0.854,2.482
			c-0.737-0.466-2.095-1.086-3.84-1.086c-2.018,0-3.143,1.164-3.143,2.56c0,1.552,1.125,2.25,3.569,3.181
			c3.258,1.241,4.926,2.87,4.926,5.663c0,3.297-2.561,5.624-7.021,5.624c-2.056,0-3.957-0.504-5.275-1.28L573.896,198.719z"/>
	</g>
	<g>
		<path d="M494.334,230.396c0.043,2.584,1.693,3.647,3.604,3.647c1.368,0,2.193-0.238,2.91-0.542l0.325,1.367
			c-0.673,0.305-1.823,0.651-3.495,0.651c-3.235,0-5.168-2.128-5.168-5.298s1.867-5.667,4.929-5.667
			c3.431,0,4.343,3.018,4.343,4.951c0,0.391-0.043,0.695-0.065,0.89H494.334z M499.936,229.028c0.021-1.216-0.499-3.105-2.649-3.105
			c-1.932,0-2.779,1.78-2.931,3.105H499.936z"/>
		<path d="M504.15,227.638c0-1.086-0.021-1.976-0.087-2.845h1.693l0.109,1.737h0.043c0.521-0.999,1.737-1.976,3.475-1.976
			c1.454,0,3.713,0.869,3.713,4.473v6.275h-1.911v-6.058c0-1.693-0.63-3.105-2.432-3.105c-1.26,0-2.236,0.89-2.563,1.954
			c-0.087,0.239-0.13,0.565-0.13,0.891v6.318h-1.911V227.638z"/>
		<path d="M523.369,233.674h-0.043c-0.564,1.043-1.737,1.868-3.431,1.868c-2.454,0-4.451-2.128-4.451-5.32
			c0-3.93,2.54-5.667,4.755-5.667c1.629,0,2.715,0.803,3.235,1.824h0.044l0.064-1.585h1.803c-0.044,0.89-0.065,1.802-0.065,2.888
			v11.92h-1.911V233.674z M523.369,229.049c0-0.261-0.021-0.564-0.086-0.803c-0.283-1.173-1.304-2.171-2.736-2.171
			c-1.976,0-3.17,1.672-3.17,4.039c0,2.084,0.999,3.908,3.104,3.908c1.238,0,2.302-0.76,2.736-2.084
			c0.087-0.26,0.151-0.629,0.151-0.912V229.049z"/>
		<path d="M537.226,232.437c0,1.086,0.021,2.041,0.087,2.866h-1.693l-0.108-1.716h-0.044c-0.499,0.848-1.606,1.955-3.474,1.955
			c-1.65,0-3.627-0.912-3.627-4.604v-6.145h1.911v5.819c0,1.998,0.608,3.343,2.345,3.343c1.281,0,2.172-0.89,2.52-1.737
			c0.108-0.282,0.173-0.629,0.173-0.977v-6.449h1.911V232.437z"/>
		<path d="M542.526,221.84c0.021,0.651-0.456,1.173-1.216,1.173c-0.673,0-1.15-0.521-1.15-1.173c0-0.673,0.499-1.194,1.193-1.194
			C542.07,220.646,542.526,221.167,542.526,221.84z M540.398,235.303v-10.509h1.911v10.509H540.398z"/>
		<path d="M545.48,228.072c0-1.238-0.021-2.302-0.087-3.279h1.672l0.065,2.063h0.087c0.478-1.412,1.628-2.302,2.909-2.302
			c0.218,0,0.369,0.021,0.543,0.065v1.802c-0.195-0.043-0.391-0.065-0.651-0.065c-1.346,0-2.302,1.021-2.563,2.454
			c-0.043,0.26-0.087,0.564-0.087,0.89v5.602h-1.889V228.072z"/>
		<path d="M554.797,221.84c0.021,0.651-0.456,1.173-1.216,1.173c-0.673,0-1.15-0.521-1.15-1.173c0-0.673,0.499-1.194,1.193-1.194
			C554.341,220.646,554.797,221.167,554.797,221.84z M552.669,235.303v-10.509h1.911v10.509H552.669z"/>
		<path d="M558.815,230.396c0.043,2.584,1.693,3.647,3.604,3.647c1.367,0,2.192-0.238,2.909-0.542l0.325,1.367
			c-0.673,0.305-1.823,0.651-3.495,0.651c-3.235,0-5.168-2.128-5.168-5.298s1.867-5.667,4.929-5.667
			c3.431,0,4.343,3.018,4.343,4.951c0,0.391-0.043,0.695-0.065,0.89H558.815z M564.417,229.028c0.021-1.216-0.499-3.105-2.649-3.105
			c-1.932,0-2.779,1.78-2.931,3.105H564.417z"/>
		<path d="M568.371,233.349c0.564,0.369,1.563,0.76,2.519,0.76c1.39,0,2.042-0.694,2.042-1.563c0-0.912-0.543-1.411-1.955-1.932
			c-1.889-0.673-2.779-1.715-2.779-2.975c0-1.694,1.368-3.083,3.627-3.083c1.063,0,1.997,0.304,2.583,0.651l-0.478,1.39
			c-0.412-0.261-1.172-0.608-2.149-0.608c-1.129,0-1.759,0.651-1.759,1.433c0,0.869,0.63,1.259,1.998,1.78
			c1.823,0.695,2.757,1.607,2.757,3.17c0,1.845-1.433,3.148-3.93,3.148c-1.15,0-2.215-0.282-2.953-0.716L568.371,233.349z"/>
		<path d="M512.153,245.948h1.911v15.416h-1.911V245.948z"/>
		<path d="M526.789,256.022c0,3.887-2.692,5.581-5.233,5.581c-2.844,0-5.037-2.085-5.037-5.407c0-3.518,2.302-5.58,5.211-5.58
			C524.748,250.616,526.789,252.81,526.789,256.022z M518.451,256.132c0,2.301,1.324,4.038,3.191,4.038
			c1.824,0,3.192-1.715,3.192-4.082c0-1.78-0.891-4.039-3.148-4.039C519.428,252.049,518.451,254.134,518.451,256.132z"/>
		<path d="M538.256,250.855c-0.044,0.76-0.087,1.606-0.087,2.888v6.102c0,2.41-0.478,3.887-1.498,4.798
			c-1.021,0.956-2.497,1.26-3.822,1.26c-1.259,0-2.648-0.304-3.495-0.868l0.478-1.455c0.694,0.435,1.78,0.825,3.083,0.825
			c1.954,0,3.388-1.021,3.388-3.67v-1.172h-0.044c-0.586,0.977-1.715,1.759-3.344,1.759c-2.605,0-4.473-2.215-4.473-5.125
			c0-3.561,2.323-5.58,4.733-5.58c1.824,0,2.822,0.955,3.278,1.824h0.044l0.087-1.585H538.256z M536.28,255.002
			c0-0.325-0.022-0.607-0.109-0.868c-0.347-1.107-1.28-2.02-2.67-2.02c-1.824,0-3.127,1.542-3.127,3.974
			c0,2.063,1.042,3.778,3.104,3.778c1.173,0,2.236-0.738,2.649-1.954c0.108-0.326,0.152-0.695,0.152-1.021V255.002z"/>
		<path d="M543.34,247.902c0.021,0.651-0.456,1.172-1.216,1.172c-0.673,0-1.15-0.521-1.15-1.172c0-0.674,0.499-1.194,1.193-1.194
			C542.884,246.708,543.34,247.229,543.34,247.902z M541.212,261.364v-10.509h1.911v10.509H541.212z"/>
		<path d="M546.294,253.699c0-1.085-0.021-1.976-0.087-2.844h1.693l0.109,1.736h0.043c0.521-0.998,1.737-1.976,3.475-1.976
			c1.454,0,3.713,0.868,3.713,4.473v6.275h-1.911v-6.058c0-1.694-0.63-3.105-2.432-3.105c-1.26,0-2.236,0.891-2.563,1.954
			c-0.087,0.239-0.13,0.564-0.13,0.891v6.318h-1.911V253.699z"/>
		<path d="M505.117,272.011h1.911v15.416h-1.911V272.011z"/>
		<path d="M519.753,282.085c0,3.887-2.692,5.581-5.233,5.581c-2.844,0-5.037-2.085-5.037-5.407c0-3.518,2.302-5.58,5.211-5.58
			C517.712,276.679,519.753,278.872,519.753,282.085z M511.415,282.194c0,2.301,1.324,4.038,3.191,4.038
			c1.824,0,3.192-1.715,3.192-4.082c0-1.78-0.891-4.039-3.148-4.039C512.392,278.111,511.415,280.196,511.415,282.194z"/>
		<path d="M531.22,276.918c-0.044,0.76-0.087,1.606-0.087,2.888v6.102c0,2.41-0.478,3.887-1.498,4.798
			c-1.021,0.956-2.497,1.26-3.822,1.26c-1.259,0-2.648-0.304-3.495-0.868l0.478-1.455c0.694,0.435,1.78,0.825,3.083,0.825
			c1.954,0,3.388-1.021,3.388-3.67v-1.172h-0.044c-0.586,0.977-1.715,1.759-3.344,1.759c-2.605,0-4.473-2.215-4.473-5.125
			c0-3.561,2.323-5.58,4.733-5.58c1.824,0,2.822,0.955,3.278,1.824h0.044l0.087-1.585H531.22z M529.244,281.064
			c0-0.325-0.022-0.607-0.109-0.868c-0.347-1.107-1.28-2.02-2.67-2.02c-1.824,0-3.127,1.542-3.127,3.974
			c0,2.063,1.042,3.778,3.104,3.778c1.173,0,2.236-0.738,2.649-1.954c0.108-0.326,0.152-0.695,0.152-1.021V281.064z"/>
		<path d="M543.816,282.085c0,3.887-2.692,5.581-5.233,5.581c-2.844,0-5.037-2.085-5.037-5.407c0-3.518,2.302-5.58,5.211-5.58
			C541.775,276.679,543.816,278.872,543.816,282.085z M535.479,282.194c0,2.301,1.324,4.038,3.191,4.038
			c1.824,0,3.192-1.715,3.192-4.082c0-1.78-0.891-4.039-3.148-4.039C536.455,278.111,535.479,280.196,535.479,282.194z"/>
		<path d="M555.022,284.561c0,1.086,0.021,2.041,0.087,2.866h-1.693l-0.108-1.716h-0.044c-0.499,0.848-1.606,1.955-3.474,1.955
			c-1.65,0-3.627-0.912-3.627-4.604v-6.145h1.911v5.818c0,1.998,0.608,3.344,2.345,3.344c1.281,0,2.172-0.89,2.52-1.736
			c0.108-0.282,0.173-0.63,0.173-0.978v-6.448h1.911V284.561z"/>
		<path d="M560.497,273.899v3.019h2.735v1.454h-2.735v5.667c0,1.304,0.369,2.041,1.433,2.041c0.5,0,0.869-0.064,1.107-0.13
			l0.087,1.434c-0.369,0.151-0.955,0.26-1.693,0.26c-0.891,0-1.606-0.282-2.063-0.803c-0.543-0.564-0.738-1.498-0.738-2.736v-5.732
			h-1.629v-1.454h1.629v-2.52L560.497,273.899z"/>
		<path d="M503.955,311.534c0.564,0.369,1.563,0.76,2.519,0.76c1.39,0,2.042-0.694,2.042-1.563c0-0.912-0.543-1.411-1.955-1.933
			c-1.889-0.673-2.779-1.715-2.779-2.975c0-1.693,1.368-3.083,3.627-3.083c1.063,0,1.997,0.304,2.583,0.651l-0.478,1.39
			c-0.412-0.261-1.172-0.608-2.149-0.608c-1.129,0-1.759,0.651-1.759,1.434c0,0.868,0.63,1.26,1.998,1.78
			c1.823,0.695,2.757,1.606,2.757,3.17c0,1.846-1.433,3.148-3.93,3.148c-1.15,0-2.215-0.282-2.953-0.716L503.955,311.534z"/>
		<path d="M514.944,300.026c0.021,0.651-0.456,1.172-1.216,1.172c-0.673,0-1.15-0.521-1.15-1.172c0-0.674,0.499-1.194,1.193-1.194
			C514.488,298.832,514.944,299.353,514.944,300.026z M512.816,313.488v-10.509h1.911v10.509H512.816z"/>
		<path d="M526.953,302.979c-0.044,0.76-0.087,1.606-0.087,2.888v6.102c0,2.41-0.478,3.887-1.498,4.798
			c-1.021,0.956-2.497,1.26-3.822,1.26c-1.259,0-2.648-0.304-3.495-0.868l0.478-1.455c0.694,0.435,1.78,0.825,3.083,0.825
			c1.954,0,3.388-1.021,3.388-3.67v-1.172h-0.044c-0.586,0.977-1.715,1.759-3.344,1.759c-2.605,0-4.473-2.215-4.473-5.125
			c0-3.561,2.323-5.58,4.733-5.58c1.824,0,2.822,0.955,3.278,1.824h0.044l0.087-1.585H526.953z M524.978,307.126
			c0-0.325-0.022-0.607-0.109-0.868c-0.347-1.107-1.28-2.02-2.67-2.02c-1.824,0-3.127,1.542-3.127,3.974
			c0,2.063,1.042,3.778,3.104,3.778c1.173,0,2.236-0.738,2.649-1.954c0.108-0.326,0.152-0.695,0.152-1.021V307.126z"/>
		<path d="M529.909,305.823c0-1.085-0.021-1.976-0.087-2.844h1.693l0.109,1.736h0.043c0.521-0.998,1.737-1.976,3.475-1.976
			c1.454,0,3.713,0.868,3.713,4.473v6.275h-1.911v-6.058c0-1.694-0.63-3.105-2.432-3.105c-1.26,0-2.236,0.891-2.563,1.954
			c-0.087,0.239-0.13,0.564-0.13,0.891v6.318h-1.911V305.823z"/>
		<path d="M550.757,310.622c0,1.086,0.021,2.041,0.087,2.866h-1.693l-0.108-1.716h-0.044c-0.499,0.848-1.606,1.955-3.474,1.955
			c-1.65,0-3.627-0.912-3.627-4.604v-6.145h1.911v5.818c0,1.998,0.608,3.344,2.345,3.344c1.281,0,2.172-0.89,2.52-1.736
			c0.108-0.282,0.173-0.63,0.173-0.978v-6.448h1.911V310.622z"/>
		<path d="M553.93,306.41c0-1.347-0.043-2.433-0.087-3.431h1.716l0.087,1.802h0.043c0.782-1.281,2.02-2.041,3.734-2.041
			c2.541,0,4.451,2.149,4.451,5.342c0,3.777-2.301,5.646-4.776,5.646c-1.39,0-2.605-0.608-3.235-1.65h-0.044v5.71h-1.889V306.41z
			 M555.818,309.211c0,0.282,0.044,0.543,0.087,0.781c0.348,1.325,1.499,2.236,2.866,2.236c2.02,0,3.192-1.649,3.192-4.06
			c0-2.106-1.107-3.909-3.127-3.909c-1.303,0-2.519,0.934-2.888,2.367c-0.065,0.239-0.131,0.521-0.131,0.781V309.211z"/>
		<path d="M516.02,339.55c0.044-0.717,0.087-1.78,0.087-2.714v-12.702h1.89v6.601h0.043c0.673-1.173,1.889-1.933,3.583-1.933
			c2.605,0,4.451,2.171,4.429,5.363c0,3.756-2.366,5.624-4.711,5.624c-1.521,0-2.736-0.587-3.518-1.977h-0.065l-0.087,1.737H516.02z
			 M517.996,335.338c0,0.238,0.043,0.478,0.086,0.694c0.369,1.324,1.477,2.236,2.866,2.236c1.998,0,3.192-1.628,3.192-4.038
			c0-2.106-1.086-3.909-3.127-3.909c-1.303,0-2.519,0.891-2.909,2.346c-0.044,0.217-0.108,0.478-0.108,0.781V335.338z"/>
		<path d="M530.592,326.088c0.021,0.651-0.456,1.172-1.216,1.172c-0.673,0-1.15-0.521-1.15-1.172c0-0.674,0.499-1.194,1.193-1.194
			C530.136,324.894,530.592,325.414,530.592,326.088z M528.464,339.55v-10.509h1.911v10.509H528.464z"/>
		<path d="M542.622,324.134v12.702c0,0.934,0.021,1.997,0.087,2.714h-1.715l-0.087-1.824h-0.044
			c-0.586,1.173-1.867,2.063-3.583,2.063c-2.54,0-4.494-2.15-4.494-5.342c-0.021-3.496,2.149-5.646,4.712-5.646
			c1.606,0,2.692,0.76,3.17,1.606h0.043v-6.274H542.622z M540.711,333.318c0-0.239-0.021-0.564-0.086-0.804
			c-0.283-1.216-1.325-2.215-2.758-2.215c-1.977,0-3.148,1.737-3.148,4.061c0,2.128,1.042,3.887,3.104,3.887
			c1.281,0,2.454-0.847,2.802-2.28c0.064-0.26,0.086-0.521,0.086-0.825V333.318z"/>
		<path d="M545.534,337.596c0.564,0.369,1.563,0.76,2.519,0.76c1.39,0,2.042-0.694,2.042-1.563c0-0.912-0.543-1.411-1.955-1.933
			c-1.889-0.673-2.779-1.715-2.779-2.975c0-1.693,1.368-3.083,3.627-3.083c1.063,0,1.997,0.304,2.583,0.651l-0.478,1.39
			c-0.412-0.261-1.172-0.608-2.149-0.608c-1.129,0-1.759,0.651-1.759,1.434c0,0.868,0.63,1.26,1.998,1.78
			c1.823,0.695,2.757,1.606,2.757,3.17c0,1.846-1.433,3.148-3.93,3.148c-1.15,0-2.215-0.282-2.953-0.716L545.534,337.596z"/>
		<path d="M487.752,365.612l-0.152-1.324h-0.064c-0.587,0.825-1.716,1.563-3.214,1.563c-2.128,0-3.214-1.499-3.214-3.019
			c0-2.54,2.259-3.93,6.318-3.908v-0.218c0-0.868-0.238-2.432-2.388-2.432c-0.978,0-1.998,0.304-2.736,0.782l-0.435-1.26
			c0.869-0.564,2.128-0.934,3.453-0.934c3.213,0,3.995,2.193,3.995,4.299v3.931c0,0.912,0.043,1.802,0.174,2.519H487.752z
			 M487.47,360.249c-2.085-0.043-4.451,0.326-4.451,2.367c0,1.237,0.825,1.823,1.802,1.823c1.368,0,2.236-0.868,2.541-1.759
			c0.064-0.195,0.108-0.412,0.108-0.607V360.249z"/>
		<path d="M499.892,365.222c-0.499,0.261-1.606,0.607-3.019,0.607c-3.17,0-5.232-2.149-5.232-5.363c0-3.234,2.215-5.58,5.646-5.58
			c1.129,0,2.128,0.282,2.648,0.543l-0.434,1.477c-0.456-0.261-1.173-0.499-2.215-0.499c-2.41,0-3.713,1.78-3.713,3.974
			c0,2.432,1.563,3.93,3.647,3.93c1.086,0,1.803-0.282,2.345-0.521L499.892,365.222z"/>
		<path d="M509.491,365.222c-0.499,0.261-1.606,0.607-3.019,0.607c-3.17,0-5.232-2.149-5.232-5.363c0-3.234,2.215-5.58,5.646-5.58
			c1.129,0,2.128,0.282,2.648,0.543l-0.434,1.477c-0.456-0.261-1.173-0.499-2.215-0.499c-2.41,0-3.713,1.78-3.713,3.974
			c0,2.432,1.563,3.93,3.647,3.93c1.086,0,1.803-0.282,2.345-0.521L509.491,365.222z"/>
		<path d="M512.663,360.705c0.043,2.584,1.693,3.647,3.604,3.647c1.367,0,2.192-0.238,2.909-0.542l0.325,1.367
			c-0.673,0.305-1.823,0.651-3.495,0.651c-3.235,0-5.168-2.128-5.168-5.298s1.867-5.667,4.929-5.667c3.431,0,4.343,3.019,4.343,4.95
			c0,0.392-0.043,0.695-0.065,0.891H512.663z M518.265,359.337c0.021-1.216-0.499-3.104-2.649-3.104
			c-1.932,0-2.779,1.78-2.931,3.104H518.265z"/>
		<path d="M522.479,358.534c0-1.347-0.043-2.433-0.087-3.431h1.716l0.087,1.802h0.043c0.782-1.281,2.02-2.041,3.734-2.041
			c2.541,0,4.451,2.149,4.451,5.342c0,3.777-2.301,5.646-4.776,5.646c-1.39,0-2.605-0.608-3.235-1.65h-0.043v5.71h-1.89V358.534z
			 M524.369,361.335c0,0.282,0.043,0.543,0.086,0.781c0.348,1.325,1.499,2.236,2.866,2.236c2.02,0,3.192-1.649,3.192-4.06
			c0-2.106-1.107-3.909-3.127-3.909c-1.303,0-2.519,0.934-2.888,2.367c-0.065,0.239-0.13,0.521-0.13,0.781V361.335z"/>
		<path d="M537.139,352.085v3.019h2.735v1.454h-2.735v5.667c0,1.304,0.369,2.041,1.433,2.041c0.5,0,0.869-0.064,1.107-0.13
			l0.087,1.434c-0.369,0.151-0.955,0.26-1.693,0.26c-0.891,0-1.606-0.282-2.063-0.803c-0.543-0.564-0.738-1.498-0.738-2.736v-5.732
			h-1.629v-1.454h1.629v-2.52L537.139,352.085z"/>
		<path d="M542.091,351.173c0.825-0.174,2.128-0.304,3.452-0.304c1.889,0,3.105,0.325,4.017,1.063
			c0.761,0.564,1.217,1.434,1.217,2.584c0,1.411-0.935,2.649-2.476,3.214v0.043c1.39,0.348,3.018,1.499,3.018,3.67
			c0,1.26-0.499,2.215-1.237,2.932c-1.021,0.934-2.671,1.367-5.06,1.367c-1.303,0-2.301-0.087-2.931-0.173V351.173z
			 M543.979,357.166h1.716c1.997,0,3.17-1.042,3.17-2.454c0-1.715-1.303-2.388-3.214-2.388c-0.868,0-1.368,0.064-1.672,0.13V357.166
			z M543.979,364.18c0.369,0.064,0.912,0.086,1.585,0.086c1.954,0,3.757-0.716,3.757-2.844c0-1.998-1.716-2.823-3.778-2.823h-1.563
			V364.18z"/>
		<path d="M555.925,352.15c0.021,0.651-0.456,1.172-1.216,1.172c-0.673,0-1.15-0.521-1.15-1.172c0-0.674,0.499-1.194,1.193-1.194
			C555.469,350.956,555.925,351.477,555.925,352.15z M553.797,365.612v-10.509h1.911v10.509H553.797z"/>
		<path d="M567.955,350.196v12.702c0,0.934,0.021,1.997,0.087,2.714h-1.716l-0.086-1.824h-0.044
			c-0.586,1.173-1.867,2.063-3.583,2.063c-2.54,0-4.494-2.15-4.494-5.342c-0.021-3.496,2.149-5.646,4.712-5.646
			c1.606,0,2.692,0.76,3.17,1.606h0.043v-6.274H567.955z M566.044,359.381c0-0.239-0.021-0.564-0.086-0.804
			c-0.283-1.216-1.325-2.215-2.758-2.215c-1.977,0-3.148,1.737-3.148,4.061c0,2.128,1.042,3.887,3.104,3.887
			c1.281,0,2.454-0.847,2.802-2.28c0.064-0.26,0.086-0.521,0.086-0.825V359.381z"/>
		<path d="M573.082,350.978v14.635h-1.889v-14.635H573.082z"/>
		<path d="M585.395,350.196v12.702c0,0.934,0.021,1.997,0.087,2.714h-1.716l-0.086-1.824h-0.044
			c-0.586,1.173-1.867,2.063-3.583,2.063c-2.54,0-4.494-2.15-4.494-5.342c-0.021-3.496,2.149-5.646,4.712-5.646
			c1.606,0,2.692,0.76,3.17,1.606h0.043v-6.274H585.395z M583.483,359.381c0-0.239-0.021-0.564-0.086-0.804
			c-0.283-1.216-1.325-2.215-2.758-2.215c-1.977,0-3.148,1.737-3.148,4.061c0,2.128,1.042,3.887,3.104,3.887
			c1.281,0,2.454-0.847,2.802-2.28c0.064-0.26,0.086-0.521,0.086-0.825V359.381z"/>
		<path d="M524.792,391.283c-0.499,0.261-1.606,0.607-3.019,0.607c-3.17,0-5.232-2.149-5.232-5.363c0-3.234,2.215-5.58,5.646-5.58
			c1.129,0,2.128,0.282,2.648,0.543l-0.434,1.477c-0.456-0.261-1.173-0.499-2.215-0.499c-2.41,0-3.713,1.78-3.713,3.974
			c0,2.432,1.563,3.93,3.647,3.93c1.086,0,1.803-0.282,2.345-0.521L524.792,391.283z"/>
		<path d="M532.85,391.674l-0.152-1.324h-0.064c-0.587,0.825-1.716,1.563-3.214,1.563c-2.128,0-3.214-1.499-3.214-3.019
			c0-2.54,2.259-3.93,6.318-3.908v-0.218c0-0.868-0.238-2.432-2.388-2.432c-0.978,0-1.998,0.305-2.736,0.782l-0.435-1.26
			c0.869-0.564,2.128-0.934,3.453-0.934c3.213,0,3.995,2.193,3.995,4.299v3.931c0,0.912,0.043,1.802,0.174,2.519H532.85z
			 M532.567,386.311c-2.085-0.043-4.451,0.326-4.451,2.367c0,1.237,0.825,1.823,1.802,1.823c1.368,0,2.236-0.868,2.541-1.759
			c0.064-0.195,0.108-0.412,0.108-0.607V386.311z"/>
		<path d="M537.498,384.443c0-1.237-0.021-2.302-0.087-3.278h1.672l0.065,2.063h0.087c0.478-1.411,1.628-2.302,2.909-2.302
			c0.218,0,0.369,0.021,0.543,0.065v1.802c-0.195-0.043-0.391-0.065-0.651-0.065c-1.346,0-2.302,1.021-2.563,2.454
			c-0.043,0.261-0.087,0.564-0.087,0.891v5.602h-1.889V384.443z"/>
		<path d="M544.339,389.72c0.564,0.369,1.563,0.76,2.519,0.76c1.39,0,2.042-0.694,2.042-1.563c0-0.912-0.543-1.411-1.955-1.933
			c-1.889-0.673-2.779-1.715-2.779-2.975c0-1.693,1.368-3.083,3.627-3.083c1.063,0,1.997,0.304,2.583,0.651l-0.478,1.39
			c-0.412-0.261-1.172-0.608-2.149-0.608c-1.129,0-1.759,0.651-1.759,1.434c0,0.868,0.63,1.26,1.998,1.78
			c1.823,0.695,2.757,1.606,2.757,3.17c0,1.846-1.433,3.148-3.93,3.148c-1.15,0-2.215-0.282-2.953-0.716L544.339,389.72z"/>
	</g>
	<g>
		<path d="M54.117,212.947l-2.877,8.715h-3.7l9.414-27.706h4.316l9.455,27.706h-3.823l-2.959-8.715H54.117z M63.202,210.152
			l-2.713-7.975c-0.617-1.809-1.028-3.453-1.439-5.056h-0.082c-0.411,1.645-0.863,3.33-1.398,5.015l-2.713,8.016H63.202z"/>
		<path d="M74.549,208.261c0-2.549-0.083-4.604-0.165-6.495h3.248l0.164,3.412h0.083c1.48-2.425,3.823-3.864,7.07-3.864
			c4.81,0,8.427,4.07,8.427,10.112c0,7.153-4.357,10.688-9.044,10.688c-2.631,0-4.933-1.151-6.125-3.124h-0.082v10.811h-3.576
			V208.261z M78.125,213.564c0,0.535,0.082,1.028,0.165,1.48c0.658,2.507,2.836,4.234,5.426,4.234c3.823,0,6.042-3.124,6.042-7.687
			c0-3.987-2.096-7.399-5.919-7.399c-2.466,0-4.769,1.768-5.467,4.481c-0.123,0.452-0.247,0.986-0.247,1.48V213.564z"/>
		<path d="M97.94,208.261c0-2.549-0.083-4.604-0.165-6.495h3.248l0.164,3.412h0.083c1.48-2.425,3.823-3.864,7.07-3.864
			c4.81,0,8.427,4.07,8.427,10.112c0,7.153-4.357,10.688-9.044,10.688c-2.631,0-4.933-1.151-6.125-3.124h-0.082v10.811H97.94
			V208.261z M101.516,213.564c0,0.535,0.082,1.028,0.165,1.48c0.658,2.507,2.836,4.234,5.426,4.234c3.823,0,6.042-3.124,6.042-7.687
			c0-3.987-2.096-7.399-5.919-7.399c-2.466,0-4.769,1.768-5.467,4.481c-0.123,0.452-0.247,0.986-0.247,1.48V213.564z"/>
	</g>
	<g>
		<path d="M60.71,284.495v5.921h6.845v-5.921h1.848v14.151h-1.848v-6.635H60.71v6.635h-1.827v-14.151H60.71z"/>
		<path d="M75.263,286.049h-4.304v-1.554h10.477v1.554h-4.325v12.598h-1.848V286.049z"/>
		<path d="M94.938,292.432c-0.105-1.974-0.231-4.346-0.21-6.109h-0.063c-0.483,1.658-1.071,3.422-1.785,5.375l-2.499,6.865h-1.386
			l-2.289-6.74c-0.672-1.994-1.239-3.82-1.638-5.5h-0.042c-0.042,1.764-0.147,4.136-0.273,6.256l-0.378,6.068h-1.743l0.987-14.151
			h2.331l2.415,6.845c0.588,1.742,1.071,3.297,1.428,4.766h0.063c0.357-1.428,0.861-2.98,1.491-4.766l2.52-6.845h2.331l0.882,14.151
			h-1.785L94.938,292.432z"/>
		<path d="M99.896,284.495h1.827v12.618h6.047v1.533h-7.874V284.495z"/>
		<path d="M61.991,323.846l-4.619-14.151h1.974l2.205,6.971c0.609,1.911,1.134,3.632,1.512,5.291h0.042
			c0.399-1.638,0.987-3.423,1.617-5.271l2.394-6.991h1.953l-5.06,14.151H61.991z"/>
		<path d="M72.26,310.828c0.021,0.63-0.441,1.134-1.176,1.134c-0.651,0-1.113-0.504-1.113-1.134c0-0.65,0.483-1.154,1.155-1.154
			C71.819,309.674,72.26,310.178,72.26,310.828z M70.203,323.846v-10.162h1.848v10.162H70.203z"/>
		<path d="M76.146,319.101c0.042,2.499,1.638,3.527,3.485,3.527c1.323,0,2.121-0.231,2.813-0.524l0.315,1.322
			c-0.651,0.294-1.764,0.63-3.38,0.63c-3.128,0-4.997-2.058-4.997-5.123s1.806-5.479,4.766-5.479c3.317,0,4.199,2.918,4.199,4.787
			c0,0.377-0.042,0.672-0.063,0.86H76.146z M81.563,317.777c0.021-1.176-0.483-3.002-2.562-3.002c-1.869,0-2.688,1.722-2.834,3.002
			H81.563z"/>
		<path d="M86.373,313.684l1.344,5.165c0.294,1.134,0.567,2.184,0.756,3.233h0.063c0.231-1.029,0.567-2.121,0.903-3.213l1.659-5.186
			h1.554l1.575,5.081c0.378,1.218,0.672,2.288,0.903,3.317h0.063c0.168-1.029,0.441-2.1,0.777-3.297l1.449-5.102h1.827
			l-3.275,10.162h-1.68l-1.554-4.85c-0.357-1.135-0.651-2.143-0.903-3.339H91.79c-0.252,1.218-0.567,2.268-0.924,3.359l-1.638,4.829
			h-1.68l-3.065-10.162H86.373z"/>
		<path d="M100.716,321.956c0.546,0.356,1.512,0.735,2.436,0.735c1.344,0,1.974-0.672,1.974-1.512c0-0.883-0.525-1.365-1.89-1.869
			c-1.827-0.65-2.688-1.658-2.688-2.877c0-1.637,1.323-2.98,3.506-2.98c1.029,0,1.932,0.293,2.499,0.629l-0.462,1.344
			c-0.399-0.252-1.134-0.588-2.079-0.588c-1.092,0-1.701,0.631-1.701,1.387c0,0.84,0.609,1.217,1.932,1.721
			c1.764,0.672,2.667,1.555,2.667,3.066c0,1.784-1.386,3.044-3.8,3.044c-1.113,0-2.142-0.272-2.855-0.692L100.716,321.956z"/>
	</g>
	<g>
		<path d="M130.025,261.685c0.819,0.504,2.016,0.924,3.275,0.924c1.869,0,2.96-0.986,2.96-2.414c0-1.323-0.756-2.079-2.667-2.814
			c-2.31-0.818-3.737-2.016-3.737-4.01c0-2.205,1.827-3.842,4.577-3.842c1.449,0,2.499,0.336,3.128,0.692l-0.504,1.491
			c-0.462-0.252-1.407-0.672-2.688-0.672c-1.932,0-2.667,1.154-2.667,2.12c0,1.323,0.861,1.974,2.813,2.729
			c2.394,0.924,3.611,2.078,3.611,4.157c0,2.184-1.617,4.073-4.955,4.073c-1.365,0-2.855-0.398-3.611-0.902L130.025,261.685z"/>
		<path d="M141.722,259.165c0.042,2.498,1.638,3.527,3.485,3.527c1.323,0,2.121-0.23,2.813-0.525l0.315,1.323
			c-0.651,0.294-1.764,0.63-3.38,0.63c-3.128,0-4.997-2.058-4.997-5.123s1.806-5.48,4.766-5.48c3.317,0,4.199,2.919,4.199,4.787
			c0,0.379-0.042,0.672-0.063,0.861H141.722z M147.139,257.843c0.021-1.176-0.483-3.003-2.562-3.003
			c-1.869,0-2.688,1.722-2.834,3.003H147.139z"/>
		<path d="M151.214,256.919c0-1.197-0.021-2.227-0.084-3.171h1.617l0.063,1.995h0.084c0.462-1.365,1.575-2.227,2.813-2.227
			c0.21,0,0.357,0.021,0.525,0.063v1.743c-0.189-0.043-0.378-0.063-0.63-0.063c-1.302,0-2.226,0.987-2.478,2.372
			c-0.042,0.252-0.084,0.547-0.084,0.861v5.417h-1.827V256.919z"/>
		<path d="M159.319,253.748l1.995,5.711c0.336,0.924,0.609,1.764,0.819,2.604h0.063c0.231-0.84,0.525-1.68,0.861-2.604l1.974-5.711
			h1.932l-3.989,10.162h-1.764l-3.863-10.162H159.319z"/>
		<path d="M170.764,250.893c0.021,0.63-0.441,1.134-1.176,1.134c-0.651,0-1.113-0.504-1.113-1.134c0-0.651,0.483-1.155,1.155-1.155
			C170.323,249.737,170.764,250.241,170.764,250.893z M168.706,263.91v-10.162h1.848v10.162H168.706z"/>
		<path d="M180.864,263.532c-0.483,0.252-1.554,0.588-2.918,0.588c-3.065,0-5.06-2.078-5.06-5.186c0-3.129,2.142-5.396,5.459-5.396
			c1.092,0,2.058,0.273,2.562,0.525l-0.42,1.428c-0.441-0.252-1.134-0.483-2.142-0.483c-2.331,0-3.59,1.722-3.59,3.843
			c0,2.352,1.512,3.8,3.527,3.8c1.05,0,1.743-0.272,2.268-0.504L180.864,263.532z"/>
		<path d="M183.931,259.165c0.042,2.498,1.638,3.527,3.485,3.527c1.323,0,2.121-0.23,2.813-0.525l0.315,1.323
			c-0.651,0.294-1.764,0.63-3.38,0.63c-3.128,0-4.997-2.058-4.997-5.123s1.806-5.48,4.766-5.48c3.317,0,4.199,2.919,4.199,4.787
			c0,0.379-0.042,0.672-0.063,0.861H183.931z M189.348,257.843c0.021-1.176-0.483-3.003-2.562-3.003
			c-1.869,0-2.688,1.722-2.834,3.003H189.348z"/>
		<path d="M193.171,262.021c0.546,0.357,1.512,0.734,2.436,0.734c1.344,0,1.974-0.672,1.974-1.512c0-0.881-0.525-1.364-1.89-1.868
			c-1.827-0.651-2.688-1.659-2.688-2.876c0-1.639,1.323-2.982,3.506-2.982c1.029,0,1.932,0.295,2.499,0.631l-0.462,1.344
			c-0.399-0.252-1.134-0.588-2.079-0.588c-1.092,0-1.701,0.629-1.701,1.385c0,0.84,0.609,1.219,1.932,1.723
			c1.764,0.672,2.667,1.553,2.667,3.064c0,1.785-1.386,3.045-3.8,3.045c-1.113,0-2.142-0.273-2.855-0.693L193.171,262.021z"/>
	</g>
	<g>
		<path d="M141.438,323.242c-0.672,0.336-2.016,0.672-3.737,0.672c-3.989,0-6.992-2.52-6.992-7.16c0-4.43,3.002-7.432,7.391-7.432
			c1.764,0,2.876,0.377,3.359,0.629l-0.441,1.491c-0.693-0.336-1.68-0.588-2.855-0.588c-3.317,0-5.522,2.12-5.522,5.837
			c0,3.465,1.995,5.689,5.438,5.689c1.113,0,2.247-0.23,2.981-0.588L141.438,323.242z"/>
		<path d="M152.631,318.539c0,3.758-2.604,5.396-5.06,5.396c-2.75,0-4.871-2.016-4.871-5.229c0-3.401,2.226-5.396,5.039-5.396
			C150.657,313.311,152.631,315.432,152.631,318.539z M144.568,318.645c0,2.225,1.281,3.904,3.086,3.904
			c1.764,0,3.086-1.658,3.086-3.947c0-1.721-0.861-3.904-3.044-3.904S144.568,316.713,144.568,318.645z"/>
		<path d="M154.964,316.293c0-1.051-0.021-1.911-0.084-2.751h1.638l0.105,1.68h0.042c0.504-0.966,1.68-1.911,3.359-1.911
			c1.407,0,3.59,0.84,3.59,4.326v6.067h-1.848v-5.858c0-1.637-0.609-3.002-2.352-3.002c-1.218,0-2.163,0.861-2.478,1.89
			c-0.084,0.231-0.126,0.546-0.126,0.86v6.11h-1.848V316.293z"/>
		<path d="M168.76,310.623v2.919h2.646v1.407h-2.646v5.479c0,1.26,0.357,1.974,1.386,1.974c0.483,0,0.84-0.063,1.071-0.126
			l0.084,1.386c-0.357,0.146-0.924,0.252-1.638,0.252c-0.861,0-1.554-0.273-1.995-0.777c-0.525-0.545-0.714-1.448-0.714-2.645
			v-5.543h-1.575v-1.407h1.575v-2.436L168.76,310.623z"/>
		<path d="M173.485,316.713c0-1.197-0.021-2.227-0.084-3.171h1.617l0.063,1.995h0.084c0.462-1.365,1.575-2.227,2.813-2.227
			c0.21,0,0.357,0.021,0.525,0.063v1.743c-0.189-0.043-0.378-0.063-0.63-0.063c-1.302,0-2.226,0.987-2.478,2.372
			c-0.042,0.252-0.084,0.547-0.084,0.861v5.417h-1.827V316.713z"/>
		<path d="M189.338,318.539c0,3.758-2.604,5.396-5.06,5.396c-2.75,0-4.871-2.016-4.871-5.229c0-3.401,2.226-5.396,5.039-5.396
			C187.365,313.311,189.338,315.432,189.338,318.539z M181.276,318.645c0,2.225,1.281,3.904,3.086,3.904
			c1.764,0,3.086-1.658,3.086-3.947c0-1.721-0.861-3.904-3.044-3.904S181.276,316.713,181.276,318.645z"/>
		<path d="M191.671,308.797h1.848v14.907h-1.848V308.797z"/>
		<path d="M196.627,308.797h1.848v14.907h-1.848V308.797z"/>
		<path d="M202.612,318.959c0.042,2.498,1.638,3.527,3.485,3.527c1.323,0,2.121-0.23,2.813-0.525l0.315,1.323
			c-0.651,0.294-1.764,0.63-3.38,0.63c-3.128,0-4.997-2.058-4.997-5.123s1.806-5.48,4.766-5.48c3.317,0,4.199,2.919,4.199,4.787
			c0,0.379-0.042,0.672-0.063,0.861H202.612z M208.029,317.637c0.021-1.176-0.483-3.003-2.562-3.003
			c-1.869,0-2.688,1.722-2.834,3.003H208.029z"/>
		<path d="M212.104,316.713c0-1.197-0.021-2.227-0.084-3.171h1.617l0.063,1.995h0.084c0.462-1.365,1.575-2.227,2.813-2.227
			c0.21,0,0.357,0.021,0.525,0.063v1.743c-0.189-0.043-0.378-0.063-0.63-0.063c-1.302,0-2.226,0.987-2.478,2.372
			c-0.042,0.252-0.084,0.547-0.084,0.861v5.417h-1.827V316.713z"/>
		<path d="M218.719,321.814c0.546,0.357,1.512,0.734,2.436,0.734c1.344,0,1.974-0.672,1.974-1.512c0-0.881-0.525-1.364-1.89-1.868
			c-1.827-0.651-2.688-1.659-2.688-2.876c0-1.639,1.323-2.982,3.506-2.982c1.029,0,1.932,0.295,2.499,0.631l-0.462,1.344
			c-0.399-0.252-1.134-0.588-2.079-0.588c-1.092,0-1.701,0.629-1.701,1.385c0,0.84,0.609,1.219,1.932,1.723
			c1.764,0.672,2.667,1.553,2.667,3.064c0,1.785-1.386,3.045-3.8,3.045c-1.113,0-2.142-0.273-2.855-0.693L218.719,321.814z"/>
	</g>
	<g>
		<path d="M130.277,375.643h7.622v1.532h-5.795v4.703h5.354v1.512h-5.354v6.404h-1.827V375.643z"/>
		<path d="M141.953,376.776c0.021,0.63-0.441,1.134-1.176,1.134c-0.651,0-1.113-0.504-1.113-1.134c0-0.65,0.483-1.154,1.155-1.154
			C141.512,375.622,141.953,376.126,141.953,376.776z M139.895,389.794v-10.162h1.848v10.162H139.895z"/>
		<path d="M144.809,374.887h1.848v14.907h-1.848V374.887z"/>
		<path d="M151.991,376.714v2.918h2.646v1.406h-2.646v5.48c0,1.26,0.357,1.974,1.386,1.974c0.483,0,0.84-0.063,1.071-0.126
			l0.084,1.386c-0.357,0.147-0.924,0.252-1.638,0.252c-0.861,0-1.554-0.272-1.995-0.776c-0.525-0.547-0.714-1.449-0.714-2.646
			v-5.543h-1.575v-1.406h1.575v-2.436L151.991,376.714z"/>
		<path d="M157.619,385.049c0.042,2.499,1.638,3.527,3.485,3.527c1.323,0,2.121-0.231,2.813-0.524l0.315,1.322
			c-0.651,0.294-1.764,0.63-3.38,0.63c-3.128,0-4.997-2.058-4.997-5.123s1.806-5.479,4.766-5.479c3.317,0,4.199,2.918,4.199,4.787
			c0,0.377-0.042,0.672-0.063,0.86H157.619z M163.036,383.726c0.021-1.176-0.483-3.002-2.562-3.002
			c-1.869,0-2.688,1.722-2.834,3.002H163.036z"/>
		<path d="M167.111,382.802c0-1.196-0.021-2.225-0.084-3.17h1.617l0.063,1.994h0.084c0.462-1.364,1.575-2.225,2.813-2.225
			c0.21,0,0.357,0.021,0.525,0.063v1.742c-0.189-0.041-0.378-0.063-0.63-0.063c-1.302,0-2.226,0.986-2.478,2.373
			c-0.042,0.252-0.084,0.545-0.084,0.86v5.417h-1.827V382.802z"/>
		<path d="M173.726,387.904c0.546,0.356,1.512,0.735,2.436,0.735c1.344,0,1.974-0.672,1.974-1.512c0-0.883-0.525-1.365-1.89-1.869
			c-1.827-0.65-2.688-1.658-2.688-2.877c0-1.637,1.323-2.98,3.506-2.98c1.029,0,1.932,0.293,2.499,0.629l-0.462,1.344
			c-0.399-0.252-1.134-0.588-2.079-0.588c-1.092,0-1.701,0.631-1.701,1.387c0,0.84,0.609,1.217,1.932,1.721
			c1.764,0.672,2.667,1.555,2.667,3.066c0,1.784-1.386,3.044-3.8,3.044c-1.113,0-2.142-0.272-2.855-0.692L173.726,387.904z"/>
	</g>
	<g>
		<path d="M370.503,201.979h-4.451v-1.607h10.835v1.607h-4.474v13.028h-1.91V201.979z"/>
		<path d="M386.421,209.665c0,3.887-2.692,5.58-5.233,5.58c-2.844,0-5.037-2.084-5.037-5.407c0-3.517,2.302-5.58,5.211-5.58
			C384.38,204.258,386.421,206.451,386.421,209.665z M378.083,209.773c0,2.302,1.324,4.039,3.191,4.039
			c1.824,0,3.192-1.715,3.192-4.082c0-1.78-0.891-4.039-3.148-4.039C379.06,205.691,378.083,207.776,378.083,209.773z"/>
		<path d="M377.787,235.402h3.374v17.493c0,6.942-3.413,9.076-7.912,9.076c-1.241,0-2.754-0.271-3.607-0.621l0.504-2.754
			c0.698,0.271,1.707,0.505,2.832,0.505c3.025,0,4.81-1.357,4.81-6.478V235.402z"/>
		<path d="M369.583,303.974c1.513,0.931,3.724,1.706,6.051,1.706c3.452,0,5.469-1.822,5.469-4.46c0-2.443-1.396-3.84-4.926-5.198
			c-4.267-1.513-6.904-3.724-6.904-7.408c0-4.072,3.375-7.098,8.456-7.098c2.677,0,4.615,0.62,5.779,1.279l-0.931,2.754
			c-0.854-0.465-2.599-1.241-4.965-1.241c-3.568,0-4.927,2.134-4.927,3.918c0,2.443,1.591,3.646,5.198,5.042
			c4.422,1.707,6.671,3.841,6.671,7.681c0,4.033-2.986,7.524-9.153,7.524c-2.521,0-5.275-0.736-6.672-1.668L369.583,303.974z"/>
		<path d="M388.59,341.281c0,8.999-5.47,13.77-12.141,13.77c-6.904,0-11.753-5.353-11.753-13.266c0-8.301,5.158-13.73,12.141-13.73
			C383.974,328.055,388.59,333.523,388.59,341.281z M368.304,341.708c0,5.585,3.025,10.589,8.339,10.589
			c5.353,0,8.379-4.926,8.379-10.86c0-5.198-2.716-10.628-8.34-10.628C371.096,330.809,368.304,335.967,368.304,341.708z"/>
		<path d="M366.85,401.163v-26.143h3.685l8.378,13.227c1.939,3.063,3.452,5.817,4.693,8.494l0.078-0.039
			c-0.311-3.49-0.389-6.671-0.389-10.744v-10.938h3.181v26.143h-3.413l-8.301-13.266c-1.823-2.909-3.568-5.896-4.887-8.728
			l-0.116,0.039c0.193,3.297,0.271,6.438,0.271,10.783v11.171H366.85z"/>
	</g>
	<g>
		<path d="M425.498,201.328c1.706-0.349,4.15-0.543,6.478-0.543c3.606,0,5.935,0.659,7.563,2.133
			c1.318,1.164,2.056,2.948,2.056,4.965c0,3.452-2.172,5.741-4.926,6.671v0.117c2.017,0.698,3.219,2.56,3.84,5.275
			c0.854,3.646,1.474,6.167,2.017,7.176h-3.491c-0.426-0.737-1.008-2.987-1.745-6.245c-0.775-3.607-2.172-4.965-5.236-5.082h-3.181
			v11.326h-3.374V201.328z M428.872,213.236h3.452c3.607,0,5.896-1.978,5.896-4.965c0-3.375-2.443-4.848-6.012-4.887
			c-1.629,0-2.793,0.155-3.336,0.311V213.236z"/>
		<path d="M439.926,261.404h-10.162v9.426h11.326v2.831h-14.7v-26.143h14.118v2.831h-10.744v8.262h10.162V261.404z"/>
		<path d="M425.904,316.089c1.513,0.931,3.724,1.706,6.051,1.706c3.452,0,5.469-1.822,5.469-4.46c0-2.443-1.396-3.84-4.926-5.198
			c-4.267-1.513-6.904-3.724-6.904-7.408c0-4.072,3.375-7.098,8.456-7.098c2.677,0,4.615,0.62,5.779,1.279l-0.931,2.754
			c-0.854-0.465-2.599-1.241-4.965-1.241c-3.568,0-4.926,2.134-4.926,3.918c0,2.443,1.59,3.646,5.197,5.042
			c4.422,1.707,6.671,3.841,6.671,7.681c0,4.033-2.986,7.524-9.153,7.524c-2.521,0-5.275-0.736-6.672-1.668L425.904,316.089z"/>
		<path d="M431.258,343.467h-7.952v-2.87h19.355v2.87h-7.99v23.272h-3.413V343.467z"/>
		<path d="M416.216,379.469c0.453,0.279,1.116,0.512,1.813,0.512c1.035,0,1.64-0.547,1.64-1.337c0-0.732-0.418-1.151-1.477-1.559
			c-1.279-0.453-2.069-1.116-2.069-2.221c0-1.221,1.012-2.128,2.534-2.128c0.803,0,1.384,0.187,1.732,0.384l-0.278,0.825
			c-0.256-0.139-0.779-0.372-1.488-0.372c-1.07,0-1.477,0.64-1.477,1.175c0,0.732,0.477,1.093,1.558,1.512
			c1.325,0.512,2,1.151,2,2.302c0,1.209-0.896,2.256-2.744,2.256c-0.756,0-1.581-0.221-2-0.5L416.216,379.469z"/>
		<path d="M422.696,378.073c0.022,1.384,0.906,1.953,1.93,1.953c0.732,0,1.175-0.128,1.558-0.29l0.175,0.732
			c-0.36,0.163-0.977,0.349-1.872,0.349c-1.732,0-2.768-1.14-2.768-2.837s1-3.035,2.64-3.035c1.837,0,2.325,1.616,2.325,2.651
			c0,0.209-0.022,0.372-0.034,0.477H422.696z M425.695,377.341c0.012-0.651-0.267-1.662-1.418-1.662
			c-1.035,0-1.488,0.953-1.57,1.662H425.695z"/>
		<path d="M427.955,376.829c0-0.662-0.012-1.232-0.046-1.756h0.895l0.035,1.104h0.047c0.256-0.755,0.872-1.232,1.558-1.232
			c0.116,0,0.197,0.012,0.291,0.035v0.965c-0.104-0.022-0.21-0.034-0.349-0.034c-0.722,0-1.233,0.546-1.372,1.313
			c-0.023,0.14-0.047,0.303-0.047,0.477v3h-1.012V376.829z"/>
		<path d="M432.446,375.073l1.104,3.163c0.187,0.512,0.337,0.977,0.453,1.441h0.035c0.128-0.465,0.291-0.93,0.477-1.441l1.093-3.163
			h1.07l-2.209,5.628h-0.977l-2.14-5.628H432.446z"/>
		<path d="M438.786,373.492c0.012,0.349-0.244,0.628-0.651,0.628c-0.36,0-0.616-0.279-0.616-0.628c0-0.36,0.268-0.64,0.64-0.64
			C438.542,372.853,438.786,373.132,438.786,373.492z M437.646,380.701v-5.628h1.023v5.628H437.646z"/>
		<path d="M444.381,380.492c-0.268,0.14-0.86,0.325-1.616,0.325c-1.697,0-2.803-1.151-2.803-2.872c0-1.732,1.187-2.988,3.023-2.988
			c0.604,0,1.14,0.151,1.419,0.291l-0.232,0.791c-0.245-0.14-0.628-0.268-1.187-0.268c-1.291,0-1.988,0.953-1.988,2.128
			c0,1.302,0.837,2.104,1.953,2.104c0.582,0,0.966-0.151,1.256-0.279L444.381,380.492z"/>
		<path d="M446.082,378.073c0.022,1.384,0.906,1.953,1.93,1.953c0.732,0,1.175-0.128,1.558-0.29l0.175,0.732
			c-0.36,0.163-0.977,0.349-1.872,0.349c-1.732,0-2.768-1.14-2.768-2.837s1-3.035,2.64-3.035c1.837,0,2.325,1.616,2.325,2.651
			c0,0.209-0.022,0.372-0.034,0.477H446.082z M449.081,377.341c0.012-0.651-0.267-1.662-1.418-1.662
			c-1.035,0-1.488,0.953-1.57,1.662H449.081z"/>
	</g>
	<g>
		<path d="M632.709,220.977l-2.389,7.236h-3.072l7.816-23.006h3.584l7.851,23.006h-3.174l-2.458-7.236H632.709z M640.253,218.656
			L638,212.034c-0.512-1.501-0.854-2.867-1.194-4.198h-0.068c-0.342,1.365-0.717,2.765-1.161,4.165l-2.253,6.656H640.253z"/>
		<path d="M643.547,264.662c0,1.707,0.034,3.209,0.136,4.506h-2.662l-0.171-2.696h-0.068c-0.785,1.331-2.525,3.071-5.461,3.071
			c-2.595,0-5.7-1.434-5.7-7.236v-9.659h3.004v9.147c0,3.141,0.955,5.257,3.687,5.257c2.014,0,3.413-1.399,3.959-2.73
			c0.171-0.444,0.273-0.99,0.273-1.536v-10.138h3.004V264.662z"/>
		<path d="M637.096,288.856v4.745h4.301v2.287h-4.301v8.908c0,2.048,0.58,3.209,2.253,3.209c0.784,0,1.365-0.103,1.74-0.205
			l0.137,2.253c-0.58,0.239-1.502,0.41-2.662,0.41c-1.399,0-2.526-0.444-3.243-1.264c-0.854-0.888-1.16-2.355-1.16-4.301v-9.011
			H631.6v-2.287h2.561v-3.96L637.096,288.856z"/>
		<path d="M629.655,326.842h3.003v10.309h0.068c0.479-0.854,1.229-1.604,2.15-2.116c0.888-0.512,1.946-0.854,3.072-0.854
			c2.219,0,5.769,1.365,5.769,7.066v9.83h-3.004v-9.489c0-2.662-0.989-4.915-3.822-4.915c-1.946,0-3.482,1.365-4.028,3.004
			c-0.171,0.409-0.205,0.853-0.205,1.434v9.967h-3.003V326.842z"/>
	</g>
	
		<line fill="none" stroke="#000000" stroke-width="5" stroke-miterlimit="10" x1="113.041" y1="272.192" x2="246.461" y2="272.192"/>
	<g id="Layer_6">
	</g>
	<g id="XMLID_1_">
		<g>
			<path fill="#FFFEFE" d="M671.13,272.19c0,9.08,19.89,16.43,44.42,16.43c-24.53,0-44.42,7.36-44.42,16.43V272.19z"/>
			<path fill="#FFFEFE" d="M671.13,305.05c0,5.53,7.38,10.42,18.69,13.39c-11.31,2.97-18.69,7.86-18.69,13.39V305.05z"/>
			<path fill="#FFFEFE" d="M671.13,331.83c0,5.71,7.89,10.74,19.85,13.69c-11.96,2.94-19.85,7.97-19.85,13.68V331.83z"/>
			<path fill="#FFFEFE" d="M759.96,359.2c0-5.71-7.88-10.75-19.85-13.68c11.97-2.94,19.85-7.98,19.85-13.69V359.2z"/>
			<path fill="#FFFEFE" d="M741.27,318.44c11.31,2.97,18.69,7.86,18.69,13.39c0,5.71-7.88,10.75-19.85,13.69
				c-7.03-1.74-15.47-2.75-24.56-2.75c-9.09,0-17.53,1.01-24.57,2.75c-11.96-2.95-19.85-7.98-19.85-13.69
				c0-5.53,7.38-10.42,18.69-13.39c7.26,1.91,16.14,3.04,25.73,3.04C725.14,321.48,734.02,320.36,741.27,318.44z"/>
			<path fill="#FFFEFE" d="M759.96,305.05v26.78c0-5.53-7.38-10.42-18.69-13.39C752.58,315.47,759.96,310.58,759.96,305.05z"/>
			<path fill="#FFFEFE" d="M715.55,288.62c24.53,0,44.41-7.35,44.41-16.43v32.86C759.96,295.98,740.08,288.62,715.55,288.62z"/>
			<path fill="#FFFEFE" d="M759.96,272.19c0,9.08-19.88,16.43-44.41,16.43c-24.53,0-44.42-7.35-44.42-16.43
				c0-9.07,19.89-16.43,44.42-16.43C740.08,255.76,759.96,263.12,759.96,272.19z"/>
			<path fill="#FFFEFE" d="M740.11,345.52c11.97,2.93,19.85,7.97,19.85,13.68c0,9.08-19.88,16.44-44.41,16.44
				c-24.53,0-44.42-7.36-44.42-16.44c0-5.71,7.89-10.74,19.85-13.68c7.04,1.73,15.48,2.74,24.57,2.74
				C724.64,348.26,733.08,347.25,740.11,345.52z"/>
			<path fill="#FFFEFE" d="M715.55,288.62c24.53,0,44.41,7.36,44.41,16.43c0,5.53-7.38,10.42-18.69,13.39
				c-7.25-1.92-16.13-3.04-25.72-3.04c-9.59,0-18.47,1.13-25.73,3.04c-11.31-2.97-18.69-7.86-18.69-13.39
				C671.13,295.98,691.02,288.62,715.55,288.62z"/>
			<path fill="#FFFEFE" d="M715.55,315.4c9.59,0,18.47,1.12,25.72,3.04c-7.25,1.92-16.13,3.04-25.72,3.04
				c-9.59,0-18.47-1.13-25.73-3.04C697.08,316.53,705.96,315.4,715.55,315.4z"/>
			<path fill="#FFFEFE" d="M715.55,342.77c9.09,0,17.53,1.01,24.56,2.75c-7.03,1.73-15.47,2.74-24.56,2.74
				c-9.09,0-17.53-1.01-24.57-2.74C698.02,343.78,706.46,342.77,715.55,342.77z"/>
		</g>
		<g>
			<polyline fill="none" stroke="#000000" stroke-width="5" stroke-miterlimit="10" points="671.13,272.19 671.13,305.05 
				671.13,331.83 671.13,359.2 			"/>
			<polyline fill="none" stroke="#000000" stroke-width="5" stroke-miterlimit="10" points="759.96,272.19 759.96,305.05 
				759.96,331.83 759.96,359.2 			"/>
			<path fill="none" stroke="#000000" stroke-width="5" stroke-miterlimit="10" d="M759.96,272.19c0,9.08-19.88,16.43-44.41,16.43
				c-24.53,0-44.42-7.35-44.42-16.43c0-9.07,19.89-16.43,44.42-16.43C740.08,255.76,759.96,263.12,759.96,272.19z"/>
			<path fill="none" stroke="#000000" stroke-width="5" stroke-miterlimit="10" d="M759.96,359.2c0,9.08-19.88,16.44-44.41,16.44
				c-24.53,0-44.42-7.36-44.42-16.44c0-5.71,7.89-10.74,19.85-13.68c7.04-1.74,15.48-2.75,24.57-2.75c9.09,0,17.53,1.01,24.56,2.75
				C752.08,348.45,759.96,353.49,759.96,359.2z"/>
			<path fill="none" stroke="#000000" stroke-width="5" stroke-miterlimit="10" d="M759.96,305.05c0,5.53-7.38,10.42-18.69,13.39
				c-7.25,1.92-16.13,3.04-25.72,3.04c-9.59,0-18.47-1.13-25.73-3.04c-11.31-2.97-18.69-7.86-18.69-13.39
				c0-9.07,19.89-16.43,44.42-16.43C740.08,288.62,759.96,295.98,759.96,305.05z"/>
			<path fill="none" stroke="#000000" stroke-width="5" stroke-miterlimit="10" d="M759.96,331.83c0,5.71-7.88,10.75-19.85,13.69
				c-7.03,1.73-15.47,2.74-24.56,2.74c-9.09,0-17.53-1.01-24.57-2.74c-11.96-2.95-19.85-7.98-19.85-13.69
				c0-5.53,7.38-10.42,18.69-13.39c7.26-1.91,16.14-3.04,25.73-3.04c9.59,0,18.47,1.12,25.72,3.04
				C752.58,321.41,759.96,326.3,759.96,331.83z"/>
		</g>
	</g>
</g>
<g id="Layer_2" display="none">
	<path display="inline" opacity="0.8" fill="#726658" d="M841.89,595.28H0V0h841.89V595.28z M539.94,101.211
		c-108.485,0-196.429,87.944-196.429,196.429s87.944,196.429,196.429,196.429s196.429-87.944,196.429-196.429
		S648.425,101.211,539.94,101.211z"/>
</g>
<g id="Layer_5" display="none">
	
		<circle display="inline" fill="none" stroke="#67CBE0" stroke-width="11" stroke-miterlimit="10" cx="539.94" cy="297.64" r="196.429"/>
	<g display="inline">
		<path fill="#FFFFFF" d="M6.723,149.59c0-7.4-0.148-13.468-0.592-19.387h11.396l0.592,11.543h0.444
			c3.995-6.808,10.655-13.171,22.495-13.171c9.768,0,17.167,5.919,20.275,14.355h0.296c2.22-3.996,5.031-7.104,7.991-9.324
			c4.292-3.256,9.028-5.032,15.836-5.032c9.472,0,23.531,6.216,23.531,31.079v42.179H96.26v-40.551
			c0-13.763-5.032-22.051-15.54-22.051c-7.399,0-13.171,5.476-15.392,11.84c-0.592,1.776-1.035,4.144-1.035,6.512v44.25H51.566
			v-42.918c0-11.396-5.032-19.684-14.948-19.684c-8.14,0-14.06,6.512-16.131,13.024c-0.74,1.924-1.036,4.144-1.036,6.364v43.214
			H6.723V149.59z"/>
		<path fill="#FFFFFF" d="M194.976,165.425c0,26.491-18.351,38.035-35.666,38.035c-19.388,0-34.335-14.207-34.335-36.851
			c0-23.976,15.688-38.035,35.519-38.035C181.065,128.575,194.976,143.522,194.976,165.425z M138.146,166.165
			c0,15.688,9.028,27.527,21.756,27.527c12.432,0,21.755-11.691,21.755-27.823c0-12.135-6.067-27.527-21.459-27.527
			S138.146,152.55,138.146,166.165z"/>
		<path fill="#FFFFFF" d="M273.268,96.755v86.578c0,6.363,0.147,13.615,0.592,18.499h-11.692l-0.592-12.432h-0.296
			c-3.996,7.992-12.728,14.06-24.419,14.06c-17.315,0-30.635-14.651-30.635-36.407c-0.148-23.827,14.651-38.479,32.114-38.479
			c10.952,0,18.352,5.18,21.607,10.952h0.296V96.755H273.268z M260.244,159.357c0-1.628-0.147-3.848-0.592-5.476
			c-1.924-8.288-9.027-15.096-18.795-15.096c-13.468,0-21.46,11.84-21.46,27.675c0,14.503,7.104,26.491,21.164,26.491
			c8.731,0,16.723-5.771,19.091-15.539c0.444-1.776,0.592-3.552,0.592-5.624V159.357z"/>
		<path fill="#FFFFFF" d="M302.129,168.385c0.296,17.611,11.543,24.863,24.567,24.863c9.323,0,14.947-1.628,19.831-3.699l2.22,9.323
			c-4.588,2.072-12.432,4.439-23.827,4.439c-22.052,0-35.223-14.503-35.223-36.11s12.728-38.626,33.595-38.626
			c23.383,0,29.599,20.571,29.599,33.743c0,2.664-0.296,4.736-0.443,6.068H302.129z M340.312,159.062
			c0.147-8.288-3.404-21.163-18.056-21.163c-13.172,0-18.943,12.135-19.979,21.163H340.312z"/>
		<path fill="#FFFFFF" d="M369.024,96.755h13.023v105.077h-13.023V96.755z"/>
	</g>
</g>
<g id="Layer_8">
	<path opacity="0.6" fill="#666766" d="M841.89,595.28H0V0h841.89V595.28z M182.286,221.274
		c-57.832,0-104.714,46.882-104.714,104.714s46.882,104.714,104.714,104.714S287,383.82,287,325.988
		S240.118,221.274,182.286,221.274z"/>
</g>
<g id="Layer_3">
	<circle fill="none" stroke="#62BC46" stroke-width="11" stroke-miterlimit="10" cx="183.595" cy="324.435" r="100.637"/>
	<g>
		<path fill="#FFFFFF" d="M206.382,198.914c-3.404,1.776-10.952,4.144-20.571,4.144c-21.607,0-35.667-14.651-35.667-36.555
			c0-22.051,15.095-38.035,38.479-38.035c7.696,0,14.503,1.924,18.055,3.7l-2.959,10.063c-3.108-1.776-7.992-3.404-15.096-3.404
			c-16.427,0-25.307,12.136-25.307,27.083c0,16.576,10.656,26.787,24.863,26.787c7.399,0,12.283-1.924,15.983-3.552L206.382,198.914
			z"/>
		<path fill="#FFFFFF" d="M285.562,165.171c0,26.491-18.352,38.035-35.667,38.035c-19.387,0-34.334-14.208-34.334-36.851
			c0-23.976,15.688-38.035,35.519-38.035C271.65,128.321,285.562,143.268,285.562,165.171z M228.732,165.911
			c0,15.688,9.028,27.527,21.755,27.527c12.432,0,21.755-11.692,21.755-27.823c0-12.135-6.067-27.527-21.459-27.527
			S228.732,152.296,228.732,165.911z"/>
		<path fill="#FFFFFF" d="M301.991,149.336c0-7.4-0.148-13.468-0.592-19.387h11.544l0.74,11.839h0.296
			c3.552-6.808,11.84-13.467,23.679-13.467c9.916,0,25.307,5.919,25.307,30.487v42.771h-13.023v-41.291
			c0-11.543-4.292-21.164-16.575-21.164c-8.584,0-15.244,6.068-17.463,13.32c-0.592,1.628-0.888,3.848-0.888,6.068v43.066h-13.023
			V149.336z"/>
		<path fill="#FFFFFF" d="M399.227,109.377v20.571h18.647v9.916h-18.647v38.626c0,8.88,2.516,13.912,9.768,13.912
			c3.403,0,5.92-0.444,7.548-0.888l0.592,9.768c-2.516,1.036-6.512,1.776-11.544,1.776c-6.067,0-10.951-1.924-14.06-5.476
			c-3.699-3.848-5.031-10.211-5.031-18.647v-39.071h-11.1v-9.916h11.1v-17.167L399.227,109.377z"/>
		<path fill="#FFFFFF" d="M432.527,152.296c0-8.436-0.148-15.688-0.593-22.347h11.396l0.443,14.06h0.592
			c3.256-9.62,11.1-15.688,19.832-15.688c1.479,0,2.516,0.148,3.699,0.444v12.284c-1.332-0.296-2.663-0.444-4.439-0.444
			c-9.176,0-15.688,6.956-17.464,16.724c-0.296,1.776-0.592,3.848-0.592,6.068v38.183h-12.875V152.296z"/>
		<path fill="#FFFFFF" d="M544.264,165.171c0,26.491-18.352,38.035-35.667,38.035c-19.387,0-34.334-14.208-34.334-36.851
			c0-23.976,15.687-38.035,35.519-38.035C530.353,128.321,544.264,143.268,544.264,165.171z M487.434,165.911
			c0,15.688,9.028,27.527,21.756,27.527c12.431,0,21.755-11.692,21.755-27.823c0-12.135-6.068-27.527-21.459-27.527
			C494.094,138.088,487.434,152.296,487.434,165.911z"/>
		<path fill="#FFFFFF" d="M560.694,96.501h13.023v105.077h-13.023V96.501z"/>
		<path fill="#FFFFFF" d="M595.62,96.501h13.023v105.077H595.62V96.501z"/>
		<path fill="#FFFFFF" d="M637.799,168.131c0.296,17.611,11.543,24.863,24.566,24.863c9.324,0,14.948-1.628,19.832-3.7l2.22,9.324
			c-4.588,2.072-12.432,4.44-23.827,4.44c-22.052,0-35.223-14.503-35.223-36.111s12.728-38.626,33.595-38.626
			c23.383,0,29.599,20.571,29.599,33.743c0,2.664-0.296,4.736-0.443,6.068H637.799z M675.982,158.808
			c0.147-8.288-3.404-21.163-18.056-21.163c-13.172,0-18.943,12.135-19.979,21.163H675.982z"/>
		<path fill="#FFFFFF" d="M704.694,152.296c0-8.436-0.148-15.688-0.592-22.347h11.396l0.443,14.06h0.593
			c3.256-9.62,11.1-15.688,19.831-15.688c1.479,0,2.516,0.148,3.7,0.444v12.284c-1.332-0.296-2.664-0.444-4.44-0.444
			c-9.176,0-15.688,6.956-17.463,16.724c-0.296,1.776-0.593,3.848-0.593,6.068v38.183h-12.875V152.296z"/>
	</g>
</g>
<g id="Layer_9" display="none">
	<path display="inline" opacity="0.7" fill="#706F70" d="M842.445,595.28H0.555V0h841.89V595.28z M85.674,258.417
		c-24.455,0-44.279,19.824-44.279,44.279c0,24.455,19.824,44.279,44.279,44.279s44.279-19.824,44.279-44.279
		C129.953,278.241,110.129,258.417,85.674,258.417z"/>
</g>
<g id="Layer_4" display="none">
	
		<circle display="inline" fill="none" stroke="#E81E25" stroke-width="11" stroke-miterlimit="10" cx="85.674" cy="302.646" r="44.279"/>
	<g display="inline">
		<path fill="#FFFFFF" d="M192.125,257.768l14.06,40.255c2.368,6.512,4.292,12.432,5.772,18.352h0.444
			c1.628-5.92,3.7-11.84,6.068-18.352l13.912-40.255h13.615l-28.119,71.63h-12.432l-27.231-71.63H192.125z"/>
		<path fill="#FFFFFF" d="M272.783,237.641c0.148,4.439-3.107,7.991-8.288,7.991c-4.588,0-7.843-3.552-7.843-7.991
			c0-4.588,3.404-8.14,8.139-8.14C269.675,229.501,272.783,233.053,272.783,237.641z M258.279,329.397v-71.63h13.024v71.63H258.279z
			"/>
		<path fill="#FFFFFF" d="M300.163,295.95c0.296,17.611,11.543,24.863,24.566,24.863c9.324,0,14.948-1.628,19.832-3.7l2.22,9.324
			c-4.588,2.071-12.432,4.439-23.827,4.439c-22.052,0-35.223-14.503-35.223-36.11s12.728-38.627,33.595-38.627
			c23.383,0,29.599,20.571,29.599,33.743c0,2.664-0.296,4.735-0.443,6.067H300.163z M338.345,286.627
			c0.147-8.288-3.404-21.163-18.056-21.163c-13.172,0-18.943,12.135-19.979,21.163H338.345z"/>
		<path fill="#FFFFFF" d="M372.237,257.768l9.472,36.407c2.072,7.991,3.996,15.391,5.328,22.791h0.443
			c1.628-7.252,3.996-14.947,6.364-22.644l11.691-36.555h10.952l11.1,35.814c2.663,8.584,4.735,16.132,6.363,23.384h0.444
			c1.184-7.252,3.107-14.8,5.476-23.235l10.212-35.963h12.875l-23.087,71.63h-11.84L417.08,295.21
			c-2.517-7.991-4.588-15.095-6.364-23.531h-0.296c-1.775,8.584-3.996,15.984-6.512,23.68l-11.544,34.039h-11.839l-21.607-71.63
			H372.237z"/>
	</g>
</g>
</svg>
