<?xml version="1.0" encoding="utf-8"?>
<!-- Generator: Adobe Illustrator 16.0.0, SVG Export Plug-In . SVG Version: 6.00 Build 0)  -->
<!DOCTYPE svg PUBLIC "-//W3C//DTD SVG 1.1//EN" "http://www.w3.org/Graphics/SVG/1.1/DTD/svg11.dtd">
<svg version="1.1" id="Layer_1" xmlns="http://www.w3.org/2000/svg" xmlns:xlink="http://www.w3.org/1999/xlink" x="0px" y="0px"
	 width="676px" height="512px" viewBox="0 0 676 512" enable-background="new 0 0 676 512" xml:space="preserve">
<g>
	<path fill="#87712C" d="M39.635,216.458h32.72l16.36,16.36v5.453H34.182v-16.36h5.453 M39.635,243.725h32.72v5.453h16.36v5.453
		h5.453v10.907H28.729v-10.907h5.453v-5.453h5.453 M34.182,281.898h16.36v10.906H28.729v-5.453h5.453 M72.355,281.898h16.36v5.453
		h5.453v5.453H72.355"/>
	<path fill="#D62F26" d="M45.089,205.552h27.266v5.453h16.36v5.453h-49.08v-5.453h5.453 M50.542,243.725h5.453v10.907h10.907v-5.453
		h5.453v10.907h5.453v10.907h5.453V281.9h-16.36v-5.453H55.995v5.453h-16.36v-10.907h5.453v-10.907h5.453"/>
	<path fill="#F8983B" d="M39.635,221.912h5.453v10.907h-5.453 M55.995,216.458h10.907v10.907h5.453v5.453h-5.453v5.453h16.36v5.453
		H45.089v-10.907h10.907v-5.453h-5.453v-5.453h5.453 M72.355,216.458h5.453v5.453h10.907v5.453h5.453v5.453h-16.36v-5.453h-5.453
		 M28.729,260.085h10.907v5.453h5.453v5.453h-5.453v5.452H28.729 M50.542,260.085h5.453v5.453h-5.453 M66.902,260.085h5.453v5.453
		h-5.453 M83.262,260.085h10.907v16.36H83.262v-5.453h-5.453v-5.453h5.453"/>
</g>
<path fill="#25AF4B" d="M617.108,216.516h5.443v16.331h-54.436v-5.444l16.331-16.331h32.662 M617.108,243.734h5.443v5.444h5.444
	v10.887h-65.324v-10.887h5.444v-5.444h16.331v-5.444h32.662 M622.552,281.84h5.444v5.444h-21.775v-10.888h16.331 M584.446,287.284
	h-21.775v-5.444h5.444v-5.443h16.331"/>
<path fill="#E2E2E2" d="M611.664,205.629h5.444v5.444h-48.993v-5.444h16.331v-5.444h27.218 M606.221,254.622h5.444v10.887h5.444
	v10.888h-16.331v-5.444H589.89v5.444h-16.331v-10.888h5.444v-10.887h5.444v-10.887h5.443v5.444h10.888v-10.887h5.443"/>
<path fill="#F8983B" d="M617.108,227.404h-5.444v-10.887h5.444 M600.777,216.516h5.443v5.444h-5.443v5.444h10.887v10.887h-38.105
	v-5.444h16.331v-5.444h-5.443v-5.444h5.443v-10.887h10.888 M584.446,221.96h-5.444v5.444h-16.331v-5.444h5.444v-5.444h10.887v-5.444
	h5.444 M627.995,270.953h-10.887v-5.444h-5.444v-5.444h5.444v-5.443h10.887 M606.221,260.064h-5.443v-5.443h5.443 M589.89,260.064
	h-5.443v-5.443h5.443 M573.559,260.064h5.444v5.444h-5.444v5.444h-10.887v-16.331h10.887"/>
<line fill="none" stroke="#D62F26" stroke-width="6" stroke-miterlimit="10" x1="105.502" y1="258.305" x2="212.807" y2="142.382"/>
<line fill="none" stroke="#D62F26" stroke-width="6" stroke-miterlimit="10" x1="106.592" y1="257.289" x2="290.713" y2="347"/>
<line fill="none" stroke="#25AF4B" stroke-width="6" stroke-miterlimit="10" x1="557.31" y1="257.348" x2="353.523" y2="170.252"/>
<line fill="none" stroke="#25AF4B" stroke-width="6" stroke-miterlimit="10" x1="551.617" y1="255.748" x2="352.014" y2="350.337"/>
<line fill="none" stroke="#25AF4B" stroke-width="6" stroke-miterlimit="10" x1="557.31" y1="255.672" x2="354.029" y2="256.656"/>
<line fill="none" stroke="#25AF4B" stroke-width="6" stroke-miterlimit="10" x1="423.62" y1="149.171" x2="557.31" y2="257.348"/>
<line fill="none" stroke="#D62F26" stroke-width="6" stroke-miterlimit="10" x1="105.502" y1="255.175" x2="203.442" y2="386.947"/>
<line fill="none" stroke="#25AF4B" stroke-width="6" stroke-miterlimit="10" x1="557.31" y1="257.348" x2="435.508" y2="380"/>
<line fill="none" stroke="#D62F26" stroke-width="6" stroke-miterlimit="10" x1="105.502" y1="258.305" x2="290.713" y2="170.027"/>
<line fill="none" stroke="#D62F26" stroke-width="6" stroke-miterlimit="10" x1="110.324" y1="255.276" x2="290.713" y2="254.291"/>
<circle fill="none" stroke="#808285" stroke-width="6" stroke-miterlimit="10" cx="237.47" cy="124.187" r="30.651"/>
<circle fill="none" stroke="#808285" stroke-width="6" stroke-miterlimit="10" cx="231.629" cy="399" r="30.651"/>
<circle fill="none" stroke="#808285" stroke-width="6" stroke-miterlimit="10" cx="321.363" cy="350.337" r="30.651"/>
<circle fill="none" stroke="#808285" stroke-width="6" stroke-miterlimit="10" cx="321.363" cy="253.219" r="30.651"/>
<path fill="none" stroke="#808285" stroke-width="6" stroke-miterlimit="10" d="M352.014,170.027
	c0,14.068-13.723,30.651-30.65,30.651c-16.929,0-30.651-13.723-30.651-30.651c0-16.928,13.723-30.651,30.651-30.651
	C338.291,139.376,352.014,153.099,352.014,170.027z"/>
<circle fill="none" stroke="#808285" stroke-width="6" stroke-miterlimit="10" cx="405.875" cy="395.74" r="30.651"/>
<circle fill="none" stroke="#808285" stroke-width="6" stroke-miterlimit="10" cx="405.875" cy="123.114" r="30.651"/>
<rect x="150.636" y="48.006" fill="none" stroke="#808285" stroke-width="6" stroke-miterlimit="10" width="341.455" height="418.453"/>
<g>
	<image overflow="visible" width="100" height="43" xlink:href="681777A121CD2BE9.png"  transform="matrix(1 0 0 1 269.5 147.5)">
	</image>
	<g>
		<g>
			<path d="M284.914,167.878v-5.25h1.5h1.5v4.5v4.5h3h3v0.75v0.75h-4.5h-4.5V167.878z"/>
			<path d="M296.914,166.378v-0.75h3.75h3.75v0.75v0.75h0.75h0.75v2.25v2.25h-0.75h-0.75v0.75v0.75h-3.75h-3.75v-0.75v-0.75h-0.75
				h-0.75v-2.25v-2.25h0.75h0.75V166.378z M302.914,169.378v-2.25h-2.25h-2.25v2.25v2.25h2.25h2.25V169.378z"/>
			<path d="M308.914,166.378v-0.75h4.5h4.5v3.75v3.75h-0.75h-0.75v0.75v0.75h-3.75h-3.75v-0.75v-0.75h3h3v-0.75v-0.75h-3h-3v-0.75
				v-0.75h-0.75h-0.75v-1.5v-1.5h0.75h0.75V166.378z M314.914,168.628v-1.5h-2.25h-2.25v1.5v1.5h2.25h2.25V168.628z"/>
			<path d="M332.914,163.378v-0.75h4.5h4.5v0.75v0.75h-1.5h-1.5v3.75v3.75h1.5h1.5v0.75v0.75h-4.5h-4.5v-0.75v-0.75h1.5h1.5v-3.75
				v-3.75h-1.5h-1.5V163.378z"/>
			<path d="M343.413,169.378v-3.75h4.5h4.5v0.75v0.75h0.75h0.75v3v3h-1.5h-1.5v-3v-3h-2.25h-2.25v3v3h-1.5h-1.5V169.378z"/>
		</g>
	</g>
</g>
<g>
	<image overflow="visible" width="66" height="56" xlink:href="681777A121CD2BEB.png"  transform="matrix(1 0 0 1 287.5 320.5)">
	</image>
	<g>
		<g>
			<path d="M304.863,341.24v-5.25h1.5h1.5v4.5v4.5h3h3v0.75v0.75h-4.5h-4.5V341.24z"/>
			<path d="M316.863,339.74v-0.75h3.75h3.75v0.75v0.75h0.75h0.75v2.25v2.25h-0.75h-0.75v0.75v0.75h-3.75h-3.75v-0.75v-0.75h-0.75
				h-0.75v-2.25v-2.25h0.75h0.75V339.74z M322.863,342.74v-2.25h-2.25h-2.25v2.25v2.25h2.25h2.25V342.74z"/>
			<path d="M328.863,339.74v-0.75h4.5h4.5v3.75v3.75h-0.75h-0.75v0.75v0.75h-3.75h-3.75v-0.75v-0.75h3h3v-0.75v-0.75h-3h-3v-0.75
				v-0.75h-0.75h-0.75v-1.5v-1.5h0.75h0.75V339.74z M334.863,341.99v-1.5h-2.25h-2.25v1.5v1.5h2.25h2.25V341.99z"/>
			<path d="M304.863,351.141v-0.75h3.75h3.75v0.75v0.75h0.75h0.75v3.75v3.75h-0.75h-0.75v0.75v0.75h-3.75h-3.75v-0.75v-0.75h-0.75
				h-0.75v-3.75v-3.75h0.75h0.75V351.141z M310.863,355.641v-3.75h-2.25h-2.25v3.75v3.75h2.25h2.25V355.641z"/>
			<path d="M315.363,356.391v-3h1.5h1.5v3v3h2.25h2.25v-3v-3h1.5h1.5v3.75v3.75h-4.5h-4.5v-0.75v-0.75h-0.75h-0.75V356.391z"/>
			<path d="M331.863,351.891v-1.5h1.5h1.5v1.5v1.5h1.5h1.5v0.75v0.75h-1.5h-1.5v3v3h-1.5h-1.5v-3v-3h-1.5h-1.5v-0.75v-0.75h1.5h1.5
				V351.891z"/>
		</g>
	</g>
</g>
<g>
	<image overflow="visible" width="138" height="57" xlink:href="681777A121CD2BEE.png"  transform="matrix(1 0 0 1 340.5 94.5)">
	</image>
	<g>
		<g>
			<path d="M374.306,115.041v-5.25h4.5h4.5v0.75v0.75h0.75h0.75v1.5v1.5h-0.75h-0.75v0.75v0.75h0.75h0.75v1.5v1.5h-0.75h-0.75v0.75
				v0.75h-4.5h-4.5V115.041z M381.806,112.791v-1.5h-2.25h-2.25v1.5v1.5h2.25h2.25V112.791z M381.806,117.291v-1.5h-2.25h-2.25v1.5
				v1.5h2.25h2.25V117.291z"/>
			<path d="M387.806,116.541v-3.75h1.5h1.5v0.75v0.75h0.75h0.75v-0.75v-0.75h2.25h2.25v0.75v0.75h-2.25h-2.25v0.75v0.75h-0.75h-0.75
				v2.25v2.25h-1.5h-1.5V116.541z"/>
			<path d="M399.806,113.541v-0.75h3.75h3.75v0.75v0.75h0.75h0.75v2.25v2.25h-0.75h-0.75v0.75v0.75h-3.75h-3.75v-0.75v-0.75h-0.75
				h-0.75v-2.25v-2.25h0.75h0.75V113.541z M405.806,116.541v-2.25h-2.25h-2.25v2.25v2.25h2.25h2.25V116.541z"/>
			<path d="M410.306,115.791v-3h0.75h0.75v3v3h0.75h0.75v-3v-3h1.5h1.5v3v3h0.75h0.75v-3v-3h1.5h1.5v3.75v3.75h-4.5h-4.5v-0.75
				v-0.75h-0.75h-0.75V115.791z"/>
			<path d="M423.806,113.541v-0.75h3.75h3.75v0.75v0.75h-3h-3v0.75v0.75h3h3v0.75v0.75h0.75h0.75v0.75v0.75h-0.75h-0.75v0.75v0.75
				h-4.5h-4.5v-0.75v-0.75h3.75h3.75v-0.75v-0.75h-3h-3v-0.75v-0.75h-0.75h-0.75v-0.75v-0.75h0.75h0.75V113.541z"/>
			<path d="M435.806,113.541v-0.75h3.75h3.75v0.75v0.75h0.75h0.75v1.5v1.5h-3.75h-3.75v0.75v0.75h3h3v0.75v0.75h-3.75h-3.75v-0.75
				v-0.75h-0.75h-0.75v-2.25v-2.25h0.75h0.75V113.541z M441.806,115.041v-0.75h-2.25h-2.25v0.75v0.75h2.25h2.25V115.041z"/>
			<path d="M356.306,129.44v-5.25h5.25h5.25v0.75v0.75h-3.75h-3.75v1.5v1.5h3h3v0.75v0.75h-3h-3v1.5v1.5h3.75h3.75v0.75v0.75h-5.25
				h-5.25V129.44z"/>
			<path d="M368.306,130.94v-3.75h4.5h4.5v0.75v0.75h0.75h0.75v3v3h-1.5h-1.5v-3v-3h-2.25h-2.25v3v3h-1.5h-1.5V130.94z"/>
			<path d="M381.806,127.94v-0.75h4.5h4.5v4.5v4.5h-1.5h-1.5v-1.5v-1.5h-3h-3v-0.75v-0.75h-0.75h-0.75v-1.5v-1.5h0.75h0.75V127.94z
				 M387.806,130.19v-1.5h-2.25h-2.25v1.5v1.5h2.25h2.25V130.19z"/>
			<path d="M392.306,130.19v-3h1.5h1.5v3v3h2.25h2.25v-3v-3h1.5h1.5v3.75v3.75h-4.5h-4.5v-0.75v-0.75h-0.75h-0.75V130.19z"/>
			<path d="M407.306,127.94v-0.75h2.25h2.25v3v3h1.5h1.5v0.75v0.75h-4.5h-4.5v-0.75v-0.75h1.5h1.5v-2.25v-2.25h-0.75h-0.75V127.94z
				 M408.806,124.94v-0.75h1.5h1.5v0.75v0.75h-1.5h-1.5V124.94z"/>
			<path d="M417.806,130.94v-3.75h1.5h1.5v0.75v0.75h0.75h0.75v-0.75v-0.75h2.25h2.25v0.75v0.75h-2.25h-2.25v0.75v0.75h-0.75h-0.75
				v2.25v2.25h-1.5h-1.5V130.94z"/>
			<path d="M431.306,127.94v-0.75h2.25h2.25v3v3h1.5h1.5v0.75v0.75h-4.5h-4.5v-0.75v-0.75h1.5h1.5v-2.25v-2.25h-0.75h-0.75V127.94z
				 M432.806,124.94v-0.75h1.5h1.5v0.75v0.75h-1.5h-1.5V124.94z"/>
			<path d="M441.806,127.94v-0.75h3.75h3.75v0.75v0.75h0.75h0.75v1.5v1.5h-3.75h-3.75v0.75v0.75h3h3v0.75v0.75h-3.75h-3.75v-0.75
				v-0.75h-0.75h-0.75v-2.25v-2.25h0.75h0.75V127.94z M447.806,129.44v-0.75h-2.25h-2.25v0.75v0.75h2.25h2.25V129.44z"/>
			<path d="M453.806,127.94v-0.75h3.75h3.75v0.75v0.75h-3h-3v0.75v0.75h3h3v0.75v0.75h0.75h0.75v0.75v0.75h-0.75h-0.75v0.75v0.75
				h-4.5h-4.5v-0.75v-0.75h3.75h3.75v-0.75v-0.75h-3h-3v-0.75v-0.75h-0.75h-0.75v-0.75v-0.75h0.75h0.75V127.94z"/>
		</g>
	</g>
</g>
<g>
	<image overflow="visible" width="113" height="57" xlink:href="681777A121CD2BEF.png"  transform="matrix(1 0 0 1 352.5 371.5)">
	</image>
	<g>
		<g>
			<path d="M367.965,392.197v-5.25h4.5h4.5v0.75v0.75h0.75h0.75v1.5v1.5h-0.75h-0.75v0.75v0.75h0.75h0.75v1.5v1.5h-0.75h-0.75v0.75
				v0.75h-4.5h-4.5V392.197z M375.465,389.947v-1.5h-2.25h-2.25v1.5v1.5h2.25h2.25V389.947z M375.465,394.447v-1.5h-2.25h-2.25v1.5
				v1.5h2.25h2.25V394.447z"/>
			<path d="M382.965,390.697v-0.75h2.25h2.25v3v3h1.5h1.5v0.75v0.75h-4.5h-4.5v-0.75v-0.75h1.5h1.5v-2.25v-2.25h-0.75h-0.75V390.697
				z M384.465,387.697v-0.75h1.5h1.5v0.75v0.75h-1.5h-1.5V387.697z"/>
			<path d="M399.465,388.447v-1.5h1.5h1.5v5.25v5.25h-4.5h-4.5v-0.75v-0.75h-0.75h-0.75v-2.25v-2.25h0.75h0.75v-0.75v-0.75h3h3
				V388.447z M399.465,393.697v-2.25h-2.25h-2.25v2.25v2.25h2.25h2.25V393.697z"/>
			<path d="M421.965,387.697v-0.75h2.25h2.25v0.75v0.75h-1.5h-1.5v0.75v0.75h1.5h1.5v0.75v0.75h-1.5h-1.5v3v3h-1.5h-1.5v-3v-3h-1.5
				h-1.5v-0.75v-0.75h1.5h1.5v-0.75v-0.75h0.75h0.75V387.697z"/>
			<path d="M429.465,390.697v-0.75h3.75h3.75v0.75v0.75h0.75h0.75v2.25v2.25h-0.75h-0.75v0.75v0.75h-3.75h-3.75v-0.75v-0.75h-0.75
				h-0.75v-2.25v-2.25h0.75h0.75V390.697z M435.465,393.697v-2.25h-2.25h-2.25v2.25v2.25h2.25h2.25V393.697z"/>
			<path d="M441.465,393.697v-3.75h1.5h1.5v0.75v0.75h0.75h0.75v-0.75v-0.75h2.25h2.25v0.75v0.75h-2.25h-2.25v0.75v0.75h-0.75h-0.75
				v2.25v2.25h-1.5h-1.5V393.697z"/>
			<path d="M367.965,406.598v-5.25h5.25h5.25v0.75v0.75h-3.75h-3.75v1.5v1.5h3h3v0.75v0.75h-3h-3v1.5v1.5h3.75h3.75v0.75v0.75h-5.25
				h-5.25V406.598z"/>
			<path d="M379.965,408.098v-3.75h4.5h4.5v0.75v0.75h0.75h0.75v3v3h-1.5h-1.5v-3v-3h-2.25h-2.25v3v3h-1.5h-1.5V408.098z"/>
			<path d="M393.465,405.098v-0.75h4.5h4.5v4.5v4.5h-1.5h-1.5v-1.5v-1.5h-3h-3v-0.75v-0.75h-0.75h-0.75v-1.5v-1.5h0.75h0.75V405.098
				z M399.465,407.348v-1.5h-2.25h-2.25v1.5v1.5h2.25h2.25V407.348z"/>
			<path d="M403.965,407.348v-3h1.5h1.5v3v3h2.25h2.25v-3v-3h1.5h1.5v3.75v3.75h-4.5h-4.5v-0.75v-0.75h-0.75h-0.75V407.348z"/>
			<path d="M418.965,405.098v-0.75h2.25h2.25v3v3h1.5h1.5v0.75v0.75h-4.5h-4.5v-0.75v-0.75h1.5h1.5v-2.25v-2.25h-0.75h-0.75V405.098
				z M420.465,402.098v-0.75h1.5h1.5v0.75v0.75h-1.5h-1.5V402.098z"/>
			<path d="M429.465,408.098v-3.75h1.5h1.5v0.75v0.75h0.75h0.75v-0.75v-0.75h2.25h2.25v0.75v0.75h-2.25h-2.25v0.75v0.75h-0.75h-0.75
				v2.25v2.25h-1.5h-1.5V408.098z"/>
			<path d="M439.965,406.598v-2.25h1.5h1.5v2.25v2.25h2.25h2.25v-2.25v-2.25h1.5h1.5v3.75v3.75h-0.75h-0.75v0.75v0.75h-3.75h-3.75
				v-0.75v-0.75h3h3v-0.75v-0.75h-3h-3v-0.75v-0.75h-0.75h-0.75V406.598z"/>
		</g>
	</g>
</g>
<g>
	<path fill="#E6E7E8" d="M28.729,300.657v-5.25h4.5h4.5v0.75v0.75h0.75h0.75v1.5v1.5h-0.75h-0.75v0.75v0.75h0.75h0.75v1.5v1.5h-0.75
		h-0.75v0.75v0.75h-4.5h-4.5V300.657z M36.229,298.407v-1.5h-2.25h-2.25v1.5v1.5h2.25h2.25V298.407z M36.229,302.907v-1.5h-2.25
		h-2.25v1.5v1.5h2.25h2.25V302.907z"/>
	<path fill="#E6E7E8" d="M40.729,301.407v-3h1.5h1.5v3v3h2.25h2.25v-3v-3h1.5h1.5v3.75v3.75h-4.5h-4.5v-0.75v-0.75h-0.75h-0.75
		V301.407z"/>
	<path fill="#E6E7E8" d="M52.729,300.657v-2.25h1.5h1.5v2.25v2.25h2.25h2.25v-2.25v-2.25h1.5h1.5v3.75v3.75h-0.75h-0.75v0.75v0.75
		h-3.75h-3.75v-0.75v-0.75h3h3v-0.75v-0.75h-3h-3v-0.75v-0.75h-0.75h-0.75V300.657z"/>
	<path fill="#E6E7E8" d="M66.229,299.157v-0.75h3.75h3.75v0.75v0.75h0.75h0.75v1.5v1.5h-3.75h-3.75v0.75v0.75h3h3v0.75v0.75h-3.75
		h-3.75v-0.75v-0.75h-0.75h-0.75v-2.25v-2.25h0.75h0.75V299.157z M72.229,300.657v-0.75h-2.25h-2.25v0.75v0.75h2.25h2.25V300.657z"
		/>
	<path fill="#E6E7E8" d="M78.229,302.157v-3.75h1.5h1.5v0.75v0.75h0.75h0.75v-0.75v-0.75h2.25h2.25v0.75v0.75h-2.25h-2.25v0.75v0.75
		h-0.75h-0.75v2.25v2.25h-1.5h-1.5V302.157z"/>
</g>
<g>
	<path fill="#E6E7E8" d="M564.171,293.657v-0.75h3h3v0.75v0.75h0.75h0.75v0.75v0.75h-1.5h-1.5v-0.75v-0.75h-1.5h-1.5v1.5v1.5h3h3
		v0.75v0.75h0.75h0.75v1.5v1.5h-0.75h-0.75v0.75v0.75h-3.75h-3.75v-0.75v-0.75h-0.75h-0.75v-0.75v-0.75h1.5h1.5v0.75v0.75h2.25h2.25
		v-1.5v-1.5h-3h-3v-0.75v-0.75h-0.75h-0.75v-1.5v-1.5h0.75h0.75V293.657z"/>
	<path fill="#E6E7E8" d="M576.171,296.657v-0.75h3.75h3.75v0.75v0.75h0.75h0.75v1.5v1.5h-3.75h-3.75v0.75v0.75h3h3v0.75v0.75h-3.75
		h-3.75v-0.75v-0.75h-0.75h-0.75v-2.25v-2.25h0.75h0.75V296.657z M582.171,298.157v-0.75h-2.25h-2.25v0.75v0.75h2.25h2.25V298.157z"
		/>
	<path fill="#E6E7E8" d="M589.671,293.657v-0.75h2.25h2.25v4.5v4.5h1.5h1.5v0.75v0.75h-4.5h-4.5v-0.75v-0.75h1.5h1.5v-3.75v-3.75
		h-0.75h-0.75V293.657z"/>
	<path fill="#E6E7E8" d="M601.671,293.657v-0.75h2.25h2.25v4.5v4.5h1.5h1.5v0.75v0.75h-4.5h-4.5v-0.75v-0.75h1.5h1.5v-3.75v-3.75
		h-0.75h-0.75V293.657z"/>
	<path fill="#E6E7E8" d="M612.171,296.657v-0.75h3.75h3.75v0.75v0.75h0.75h0.75v1.5v1.5h-3.75h-3.75v0.75v0.75h3h3v0.75v0.75h-3.75
		h-3.75v-0.75v-0.75h-0.75h-0.75v-2.25v-2.25h0.75h0.75V296.657z M618.171,298.157v-0.75h-2.25h-2.25v0.75v0.75h2.25h2.25V298.157z"
		/>
	<path fill="#E6E7E8" d="M624.171,299.657v-3.75h1.5h1.5v0.75v0.75h0.75h0.75v-0.75v-0.75h2.25h2.25v0.75v0.75h-2.25h-2.25v0.75
		v0.75h-0.75h-0.75v2.25v2.25h-1.5h-1.5V299.657z"/>
</g>
<g>
	<image overflow="visible" width="114" height="58" xlink:href="681777A121CD2BEA.png"  transform="matrix(1 0 0 1 179.5 370.5)">
	</image>
	<g>
		<g>
			<path d="M202.97,387.066v-0.75h3h3v0.75v0.75h0.75h0.75v0.75v0.75h-1.5h-1.5v-0.75v-0.75h-1.5h-1.5v1.5v1.5h3h3v0.75v0.75h0.75
				h0.75v1.5v1.5h-0.75h-0.75v0.75v0.75h-3.75h-3.75v-0.75v-0.75h-0.75h-0.75v-0.75v-0.75h1.5h1.5v0.75v0.75h2.25h2.25v-1.5v-1.5h-3
				h-3v-0.75v-0.75h-0.75h-0.75v-1.5v-1.5h0.75h0.75V387.066z"/>
			<path d="M213.47,392.316v-3h1.5h1.5v3v3h2.25h2.25v-3v-3h1.5h1.5v3.75v3.75h-4.5h-4.5v-0.75v-0.75h-0.75h-0.75V392.316z"/>
			<path d="M225.47,390.816v-4.5h1.5h1.5v1.5v1.5h3h3v0.75v0.75h0.75h0.75v2.25v2.25h-0.75h-0.75v0.75v0.75h-3.75h-3.75v-0.75v-0.75
				h-0.75h-0.75V390.816z M232.97,393.066v-2.25h-2.25h-2.25v2.25v2.25h2.25h2.25V393.066z"/>
			<path d="M237.47,393.066v-3.75h4.5h4.5v0.75v0.75h0.75h0.75v3v3h-1.5h-1.5v-3v-3h-0.75h-0.75v3v3h-1.5h-1.5v-3v-3h-0.75h-0.75v3
				v3h-0.75h-0.75V393.066z"/>
			<path d="M252.47,390.066v-0.75h2.25h2.25v3v3h1.5h1.5v0.75v0.75h-4.5h-4.5v-0.75v-0.75h1.5h1.5v-2.25v-2.25h-0.75h-0.75V390.066z
				 M253.97,387.066v-0.75h1.5h1.5v0.75v0.75h-1.5h-1.5V387.066z"/>
			<path d="M265.97,387.816v-1.5h1.5h1.5v1.5v1.5h1.5h1.5v0.75v0.75h-1.5h-1.5v3v3h-1.5h-1.5v-3v-3h-1.5h-1.5v-0.75v-0.75h1.5h1.5
				V387.816z"/>
			<path d="M195.47,405.967v-5.25h5.25h5.25v0.75v0.75h-3.75h-3.75v1.5v1.5h3h3v0.75v0.75h-3h-3v1.5v1.5h3.75h3.75v0.75v0.75h-5.25
				h-5.25V405.967z"/>
			<path d="M207.47,407.467v-3.75h4.5h4.5v0.75v0.75h0.75h0.75v3v3h-1.5h-1.5v-3v-3h-2.25h-2.25v3v3h-1.5h-1.5V407.467z"/>
			<path d="M220.97,404.467v-0.75h4.5h4.5v4.5v4.5h-1.5h-1.5v-1.5v-1.5h-3h-3v-0.75v-0.75h-0.75h-0.75v-1.5v-1.5h0.75h0.75V404.467z
				 M226.97,406.717v-1.5h-2.25h-2.25v1.5v1.5h2.25h2.25V406.717z"/>
			<path d="M231.47,406.717v-3h1.5h1.5v3v3h2.25h2.25v-3v-3h1.5h1.5v3.75v3.75h-4.5h-4.5v-0.75v-0.75h-0.75h-0.75V406.717z"/>
			<path d="M246.47,404.467v-0.75h2.25h2.25v3v3h1.5h1.5v0.75v0.75h-4.5h-4.5v-0.75v-0.75h1.5h1.5v-2.25v-2.25h-0.75h-0.75V404.467z
				 M247.97,401.467v-0.75h1.5h1.5v0.75v0.75h-1.5h-1.5V401.467z"/>
			<path d="M256.97,407.467v-3.75h1.5h1.5v0.75v0.75h0.75h0.75v-0.75v-0.75h2.25h2.25v0.75v0.75h-2.25h-2.25v0.75v0.75h-0.75h-0.75
				v2.25v2.25h-1.5h-1.5V407.467z"/>
			<path d="M267.47,405.967v-2.25h1.5h1.5v2.25v2.25h2.25h2.25v-2.25v-2.25h1.5h1.5v3.75v3.75h-0.75h-0.75v0.75v0.75h-3.75h-3.75
				v-0.75v-0.75h3h3v-0.75v-0.75h-3h-3v-0.75v-0.75h-0.75h-0.75V405.967z"/>
		</g>
	</g>
</g>
<g>
	<image overflow="visible" width="113" height="56" xlink:href="681777A121CD2BE5.png"  transform="matrix(1 0 0 1 184.5 94.5)">
	</image>
	<g>
		<g>
			<g>
				<path d="M199.625,115.041v-5.25h4.5h4.5v0.75v0.75h0.75h0.75v2.25v2.25h-0.75h-0.75v0.75v0.75h-3h-3v1.5v1.5h-1.5h-1.5V115.041z
					 M207.125,113.541v-2.25h-2.25h-2.25v2.25v2.25h2.25h2.25V113.541z"/>
				<path d="M213.125,113.541v-0.75h3.75h3.75v0.75v0.75h0.75h0.75v3v3h-4.5h-4.5v-0.75v-0.75h-0.75h-0.75v-0.75v-0.75h0.75h0.75
					v-0.75v-0.75h3h3v-0.75v-0.75h-3h-3V113.541z M219.125,118.041v-0.75h-2.25h-2.25v0.75v0.75h2.25h2.25V118.041z"/>
				<path d="M223.625,115.041v-2.25h1.5h1.5v2.25v2.25h2.25h2.25v-2.25v-2.25h1.5h1.5v3.75v3.75h-0.75h-0.75v0.75v0.75h-3.75h-3.75
					v-0.75v-0.75h3h3v-0.75v-0.75h-3h-3v-0.75v-0.75h-0.75h-0.75V115.041z"/>
				<path d="M253.625,110.541v-0.75h2.25h2.25v0.75v0.75h-1.5h-1.5v0.75v0.75h1.5h1.5v0.75v0.75h-1.5h-1.5v3v3h-1.5h-1.5v-3v-3h-1.5
					h-1.5v-0.75v-0.75h1.5h1.5v-0.75v-0.75h0.75h0.75V110.541z"/>
				<path d="M261.125,113.541v-0.75h3.75h3.75v0.75v0.75h0.75h0.75v2.25v2.25h-0.75h-0.75v0.75v0.75h-3.75h-3.75v-0.75v-0.75h-0.75
					h-0.75v-2.25v-2.25h0.75h0.75V113.541z M267.125,116.541v-2.25h-2.25h-2.25v2.25v2.25h2.25h2.25V116.541z"/>
				<path d="M273.125,116.541v-3.75h1.5h1.5v0.75v0.75h0.75h0.75v-0.75v-0.75h2.25h2.25v0.75v0.75h-2.25h-2.25v0.75v0.75h-0.75
					h-0.75v2.25v2.25h-1.5h-1.5V116.541z"/>
				<path d="M226.625,124.94v-0.75h3h3v0.75v0.75h0.75h0.75v0.75v0.75h-1.5h-1.5v-0.75v-0.75h-1.5h-1.5v0.75v0.75h-0.75h-0.75v2.25
					v2.25h0.75h0.75v0.75v0.75h1.5h1.5v-0.75v-0.75h1.5h1.5v0.75v0.75h-0.75h-0.75v0.75v0.75h-3h-3v-0.75v-0.75h-0.75h-0.75v-0.75
					v-0.75h-0.75h-0.75v-2.25v-2.25h0.75h0.75v-0.75v-0.75h0.75h0.75V124.94z"/>
				<path d="M237.125,127.94v-0.75h3.75h3.75v0.75v0.75h0.75h0.75v3v3h-4.5h-4.5v-0.75v-0.75h-0.75h-0.75v-0.75v-0.75h0.75h0.75
					v-0.75v-0.75h3h3v-0.75v-0.75h-3h-3V127.94z M243.125,132.44v-0.75h-2.25h-2.25v0.75v0.75h2.25h2.25V132.44z"/>
				<path d="M249.125,130.94v-3.75h1.5h1.5v0.75v0.75h0.75h0.75v-0.75v-0.75h2.25h2.25v0.75v0.75h-2.25h-2.25v0.75v0.75h-0.75h-0.75
					v2.25v2.25h-1.5h-1.5V130.94z"/>
			</g>
		</g>
	</g>
</g>
<g>
	<image overflow="visible" width="113" height="43" xlink:href="681777A121CD2BE6.png"  transform="matrix(1 0 0 1 266.5 233.5)">
	</image>
	<g>
		<g>
			<path d="M283.378,249.274v-0.75h3h3v0.75v0.75h0.75h0.75v0.75v0.75h-1.5h-1.5v-0.75v-0.75h-1.5h-1.5v1.5v1.5h3h3v0.75v0.75h0.75
				h0.75v1.5v1.5h-0.75h-0.75v0.75v0.75h-3.75h-3.75v-0.75v-0.75h-0.75h-0.75v-0.75v-0.75h1.5h1.5v0.75v0.75h2.25h2.25v-1.5v-1.5h-3
				h-3v-0.75v-0.75h-0.75h-0.75v-1.5v-1.5h0.75h0.75V249.274z"/>
			<path d="M296.878,252.274v-0.75h2.25h2.25v3v3h1.5h1.5v0.75v0.75h-4.5h-4.5v-0.75v-0.75h1.5h1.5v-2.25v-2.25h-0.75h-0.75V252.274
				z M298.378,249.274v-0.75h1.5h1.5v0.75v0.75h-1.5h-1.5V249.274z"/>
			<path d="M307.378,252.274v-0.75h4.5h4.5v3.75v3.75h-0.75h-0.75v0.75v0.75h-3.75h-3.75v-0.75v-0.75h3h3v-0.75v-0.75h-3h-3v-0.75
				v-0.75h-0.75h-0.75v-1.5v-1.5h0.75h0.75V252.274z M313.378,254.524v-1.5h-2.25h-2.25v1.5v1.5h2.25h2.25V254.524z"/>
			<path d="M317.878,255.274v-3.75h4.5h4.5v0.75v0.75h0.75h0.75v3v3h-1.5h-1.5v-3v-3h-2.25h-2.25v3v3h-1.5h-1.5V255.274z"/>
			<path d="M341.878,253.024v-4.5h1.5h1.5v4.5v4.5h2.25h2.25v-4.5v-4.5h1.5h1.5v4.5v4.5h-0.75h-0.75v0.75v0.75h-3.75h-3.75v-0.75
				v-0.75h-0.75h-0.75V253.024z"/>
			<path d="M353.878,256.024v-4.5h4.5h4.5v0.75v0.75h0.75h0.75v1.5v1.5h-0.75h-0.75v0.75v0.75h-3h-3v1.5v1.5h-1.5h-1.5V256.024z
				 M361.378,254.524v-1.5h-2.25h-2.25v1.5v1.5h2.25h2.25V254.524z"/>
		</g>
	</g>
</g>
</svg>
