<?xml version="1.0" encoding="utf-8"?>
<!-- Generator: Adobe Illustrator 17.0.1, SVG Export Plug-In . SVG Version: 6.00 Build 0)  -->
<!DOCTYPE svg PUBLIC "-//W3C//DTD SVG 1.1//EN" "http://www.w3.org/Graphics/SVG/1.1/DTD/svg11.dtd">
<svg version="1.1" id="Layer_1" xmlns="http://www.w3.org/2000/svg" xmlns:xlink="http://www.w3.org/1999/xlink" x="0px" y="0px"
	 width="219.162px" height="148.323px" viewBox="0 0 219.162 148.323" enable-background="new 0 0 219.162 148.323"
	 xml:space="preserve">
<path fill="#25AF4B" d="M173.373,71.951h15.274v45.823H35.903V102.5l45.823-45.823h91.647 M173.373,148.323h15.274v15.274h15.274
	v30.549H20.629v-30.549h15.274v-15.274h45.823v-15.274h91.647 M188.648,255.244h15.274v15.274h-61.098V239.97h45.823
	 M81.727,270.519H20.629v-15.274h15.274V239.97h45.823"/>
<path fill="#E2E2E2" d="M158.099,41.402h15.274v15.274H35.903V41.402h45.823V26.128h76.372 M142.824,178.872h15.274v30.549h15.274
	v30.549H127.55v-15.274H97.001v15.274H51.178v-30.549h15.274v-30.549h15.274v-30.549h15.274v15.274h30.549v-30.549h15.274"/>
<path fill="#F8983B" d="M173.373,102.5h-15.274V71.951h15.274 M127.55,71.951h15.274v15.274H127.55V102.5h30.549v30.549H51.178
	v-15.274h45.823V102.5H81.727V87.226h15.274V56.677h30.549 M81.727,87.226H66.452V102.5H20.629V87.226h15.274V71.951h30.549V56.677
	h15.274 M203.922,224.696h-30.549v-15.274h-15.274v-15.274h15.274v-15.274h30.549 M142.824,194.147H127.55v-15.274h15.274
	 M97.001,194.147H81.727v-15.274h15.274 M51.178,194.147h15.274v15.274H51.178v15.274H20.629v-45.823h30.549"/>
</svg>
