<?xml version="1.0" encoding="utf-8"?>
<!-- Generator: Adobe Illustrator 17.0.1, SVG Export Plug-In . SVG Version: 6.00 Build 0)  -->
<!DOCTYPE svg PUBLIC "-//W3C//DTD SVG 1.1//EN" "http://www.w3.org/Graphics/SVG/1.1/DTD/svg11.dtd">
<svg version="1.1" id="Layer_1" xmlns="http://www.w3.org/2000/svg" xmlns:xlink="http://www.w3.org/1999/xlink" x="0px" y="0px"
	 width="265.269px" height="296.647px" viewBox="0 0 265.269 296.647" enable-background="new 0 0 265.269 296.647"
	 xml:space="preserve">
<path fill="#25AF4B" d="M193.732,71.951h15.274v45.823H56.263V102.5l45.823-45.823h91.647 M193.732,148.323h15.274v15.274h15.274
	v30.549H40.988v-30.549h15.274v-15.274h45.823v-15.274h91.647 M209.007,255.244h15.274v15.274h-61.098V239.97h45.823
	 M102.086,270.519H40.988v-15.274h15.274V239.97h45.823"/>
<path fill="#E2E2E2" d="M178.458,41.402h15.274v15.274H56.263V41.402h45.823V26.128h76.372 M163.184,178.872h15.274v30.549h15.274
	v30.549h-45.823v-15.274H117.36v15.274H71.537v-30.549h15.274v-30.549h15.274v-30.549h15.274v15.274h30.549v-30.549h15.274"/>
<path fill="#F8983B" d="M193.732,102.5h-15.274V71.951h15.274 M147.909,71.951h15.274v15.274h-15.274V102.5h30.549v30.549H71.537
	v-15.274h45.823V102.5h-15.274V87.226h15.274V56.677h30.549 M102.086,87.226H86.811V102.5H40.988V87.226h15.274V71.951h30.549
	V56.677h15.274 M224.281,224.696h-30.549v-15.274h-15.274v-15.274h15.274v-15.274h30.549 M163.184,194.147h-15.274v-15.274h15.274
	 M117.36,194.147h-15.274v-15.274h15.274 M71.537,194.147h15.274v15.274H71.537v15.274H40.988v-45.823h30.549"/>
</svg>
