<?xml version="1.0" encoding="utf-8"?>
<!-- Generator: Adobe Illustrator 17.0.1, SVG Export Plug-In . SVG Version: 6.00 Build 0)  -->
<!DOCTYPE svg PUBLIC "-//W3C//DTD SVG 1.1//EN" "http://www.w3.org/Graphics/SVG/1.1/DTD/svg11.dtd">
<svg version="1.1" id="Layer_1" xmlns="http://www.w3.org/2000/svg" xmlns:xlink="http://www.w3.org/1999/xlink" x="0px" y="0px"
	 width="219.162px" height="148.323px" viewBox="0 0 219.162 148.323" enable-background="new 0 0 219.162 148.323"
	 xml:space="preserve">
<g>
	<path fill="#87712C" d="M44.609,55.814h92.509l46.255,46.255v15.418H29.191V71.232h15.418 M44.609,132.905h92.509v15.418h46.255
		v15.418h15.418v30.837H13.772v-30.837h15.418v-15.418h15.418 M29.191,240.833h46.255v30.836H13.772v-15.418h15.418
		 M137.118,240.833h46.255v15.418h15.418v15.418h-61.673"/>
	<path fill="#D62F26" d="M60.027,24.977h77.091v15.418h46.255v15.418H44.609V40.396h15.418 M75.445,132.905h15.418v30.836H121.7
		v-15.418h15.418v30.837h15.418v30.836h15.418v30.836H121.7v-15.418H90.864v15.418H44.609v-30.836h15.418V179.16h15.418"/>
	<path fill="#F8983B" d="M44.609,71.232h15.418v30.836H44.609 M90.864,55.814H121.7V86.65h15.418v15.418H121.7v15.418h46.255v15.418
		H60.027v-30.836h30.836V86.65H75.445V71.232h15.418 M137.118,55.814h15.418v15.418h30.836V86.65h15.418v15.418h-46.255V86.65
		h-15.418 M13.772,179.16h30.836v15.418h15.418v15.418H44.609v15.418H13.772 M75.445,179.16h15.418v15.418H75.445 M121.7,179.16
		h15.418v15.418H121.7 M167.955,179.16h30.837v46.255h-30.837v-15.418h-15.418v-15.418h15.418"/>
</g>
</svg>
