<?xml version="1.0" encoding="utf-8"?>
<!-- Generator: Adobe Illustrator 17.0.1, SVG Export Plug-In . SVG Version: 6.00 Build 0)  -->
<!DOCTYPE svg PUBLIC "-//W3C//DTD SVG 1.1//EN" "http://www.w3.org/Graphics/SVG/1.1/DTD/svg11.dtd">
<svg version="1.1" id="Layer_1" xmlns="http://www.w3.org/2000/svg" xmlns:xlink="http://www.w3.org/1999/xlink" x="0px" y="0px"
	 width="265.269px" height="296.647px" viewBox="0 0 265.269 296.647" enable-background="new 0 0 265.269 296.647"
	 xml:space="preserve">
<g>
	<path fill="#87712C" d="M69.513,54.137h92.509l46.255,46.255v15.418H54.095V69.555h15.418 M69.513,131.228h92.509v15.418h46.255
		v15.418h15.418v30.836H38.676v-30.836h15.418v-15.418h15.418 M54.095,239.156h46.255v30.836H38.676v-15.418h15.418
		 M162.022,239.156h46.255v15.418h15.418v15.418h-61.673"/>
	<path fill="#D62F26" d="M84.931,23.301h77.091v15.418h46.255v15.418H69.513V38.719h15.418 M100.349,131.228h15.418v30.837h30.836
		v-15.418h15.418v30.836h15.418v30.836h15.418v30.837h-46.255v-15.418h-30.836v15.418H69.513V208.32h15.418v-30.836h15.418"/>
	<path fill="#F8983B" d="M69.513,69.555h15.418v30.836H69.513 M115.768,54.137h30.836v30.836h15.418v15.418h-15.418v15.418h46.255
		v15.418H84.931v-30.836h30.836V84.974h-15.418V69.555h15.418 M162.022,54.137h15.418v15.418h30.837v15.418h15.418v15.418h-46.255
		V84.974h-15.418 M38.676,177.483h30.836v15.418h15.418v15.418H69.513v15.418H38.676 M100.349,177.483h15.418v15.418h-15.418
		 M146.604,177.483h15.418v15.418h-15.418 M192.859,177.483h30.836v46.255h-30.836V208.32h-15.418v-15.418h15.418"/>
</g>
</svg>
