<?xml version="1.0" encoding="utf-8"?>
<!-- Generator: Adobe Illustrator 17.0.1, SVG Export Plug-In . SVG Version: 6.00 Build 0)  -->
<!DOCTYPE svg PUBLIC "-//W3C//DTD SVG 1.1//EN" "http://www.w3.org/Graphics/SVG/1.1/DTD/svg11.dtd">
<svg version="1.1" id="Layer_1" xmlns="http://www.w3.org/2000/svg" xmlns:xlink="http://www.w3.org/1999/xlink" x="0px" y="0px"
	 width="841.89px" height="595.28px" viewBox="0 0 841.89 595.28" enable-background="new 0 0 841.89 595.28" xml:space="preserve">
<g>
	<path fill="#87712C" d="M129.969,251.002h32.72l16.36,16.36v5.453h-54.533v-16.36h5.453 M129.969,278.268h32.72v5.453h16.36v5.453
		h5.453v10.907h-65.439v-10.907h5.453v-5.453h5.453 M124.515,316.441h16.36v10.907h-21.813v-5.453h5.453 M162.688,316.441h16.36
		v5.453h5.453v5.453h-21.813"/>
	<path fill="#D62F26" d="M135.422,240.095h27.266v5.453h16.36v5.453h-49.079v-5.453h5.453 M140.875,278.268h5.453v10.907h10.907
		v-5.453h5.453v10.907h5.453v10.907h5.453v10.907h-16.36v-5.453h-10.907v5.453h-16.36v-10.907h5.453v-10.907h5.453"/>
	<path fill="#F8983B" d="M129.969,256.455h5.453v10.907h-5.453 M146.329,251.002h10.907v10.907h5.453v5.453h-5.453v5.453h16.36
		v5.453h-38.173v-10.907h10.907v-5.453h-5.453v-5.453h5.453 M162.688,251.002h5.453v5.453h10.907v5.453h5.453v5.453h-16.36v-5.453
		h-5.453 M119.062,294.628h10.907v5.453h5.453v5.453h-5.453v5.453h-10.907 M140.875,294.628h5.453v5.453h-5.453 M157.235,294.628
		h5.453v5.453h-5.453 M173.595,294.628h10.907v16.36h-10.907v-5.453h-5.453v-5.453h5.453"/>
</g>
<path fill="#25AF4B" d="M696.108,250.516h5.444v16.331h-54.436v-5.444l16.331-16.331h32.662 M696.108,277.734h5.444v5.444h5.444
	v10.887h-65.324v-10.887h5.444v-5.444h16.331v-5.444h32.662 M701.552,315.84h5.444v5.444h-21.775v-10.887h16.331 M663.446,321.284
	h-21.775v-5.444h5.444v-5.444h16.331"/>
<path fill="#E2E2E2" d="M690.664,239.629h5.444v5.444h-48.993v-5.444h16.331v-5.444h27.218 M685.221,288.622h5.444v10.887h5.444
	v10.887h-16.331v-5.444H668.89v5.444h-16.331v-10.887h5.444v-10.887h5.444v-10.887h5.444v5.444h10.887v-10.887h5.444"/>
<path fill="#F8983B" d="M696.108,261.404h-5.444v-10.887h5.444 M679.777,250.516h5.444v5.444h-5.444v5.444h10.887v10.887h-38.105
	v-5.444h16.331v-5.444h-5.444v-5.444h5.444v-10.887h10.887 M663.446,255.96h-5.444v5.444h-16.331v-5.444h5.444v-5.444h10.887v-5.444
	h5.444 M706.995,304.953h-10.887v-5.444h-5.444v-5.444h5.444v-5.444h10.887 M685.221,294.065h-5.444v-5.444h5.444 M668.89,294.065
	h-5.444v-5.444h5.444 M652.559,294.065h5.444v5.444h-5.444v5.444h-10.887v-16.331h10.887"/>
<circle fill="none" stroke="#9B9A9A" stroke-width="7" cx="341.279" cy="158.187" r="30.651"/>
<circle fill="none" stroke="#9B9A9A" stroke-width="7" cx="335.306" cy="431.03" r="30.651"/>
<circle fill="none" stroke="#9B9A9A" stroke-width="7" cx="409.074" cy="348.959" r="30.651"/>
<circle fill="none" stroke="#9B9A9A" stroke-width="7" cx="409.074" cy="230.495" r="30.651"/>
<circle fill="none" stroke="#9B9A9A" stroke-width="7" cx="484.875" cy="435.822" r="30.651"/>
<circle fill="none" stroke="#9B9A9A" stroke-width="7" cx="484.875" cy="158.187" r="30.651"/>
<g>
	<path fill="#EFEFEF" d="M336.834,211.564v-8.75h2.5h2.5v7.5v7.5h5h5v1.25v1.25h-7.5h-7.5V211.564z"/>
	<path fill="#EFEFEF" d="M356.834,209.064v-1.25h6.25h6.25v1.25v1.25h1.25h1.25v3.75v3.75h-1.25h-1.25v1.25v1.25h-6.25h-6.25v-1.25
		v-1.25h-1.25h-1.25v-3.75v-3.75h1.25h1.25V209.064z M366.834,214.064v-3.75h-3.75h-3.75v3.75v3.75h3.75h3.75V214.064z"/>
	<path fill="#EFEFEF" d="M376.834,209.064v-1.25h7.5h7.5v6.25v6.25h-1.25h-1.25v1.25v1.25h-6.25h-6.25v-1.25v-1.25h5h5v-1.25v-1.25
		h-5h-5v-1.25v-1.25h-1.25h-1.25v-2.5v-2.5h1.25h1.25V209.064z M386.834,212.814v-2.5h-3.75h-3.75v2.5v2.5h3.75h3.75V212.814z"/>
	<path fill="#EFEFEF" d="M416.834,204.064v-1.25h7.5h7.5v1.25v1.25h-2.5h-2.5v6.25v6.25h2.5h2.5v1.25v1.25h-7.5h-7.5v-1.25v-1.25
		h2.5h2.5v-6.25v-6.25h-2.5h-2.5V204.064z"/>
	<path fill="#EFEFEF" d="M434.334,214.064v-6.25h7.5h7.5v1.25v1.25h1.25h1.25v5v5h-2.5h-2.5v-5v-5h-3.75h-3.75v5v5h-2.5h-2.5
		V214.064z"/>
</g>
<g>
	<path fill="#EFEFEF" d="M346.049,356.724v-8.75h2.5h2.5v7.5v7.5h5h5v1.25v1.25h-7.5h-7.5V356.724z"/>
	<path fill="#EFEFEF" d="M366.049,354.224v-1.25h6.25h6.25v1.25v1.25h1.25h1.25v3.75v3.75h-1.25h-1.25v1.25v1.25h-6.25h-6.25v-1.25
		v-1.25h-1.25h-1.25v-3.75v-3.75h1.25h1.25V354.224z M376.049,359.224v-3.75h-3.75h-3.75v3.75v3.75h3.75h3.75V359.224z"/>
	<path fill="#EFEFEF" d="M386.049,354.224v-1.25h7.5h7.5v6.25v6.25h-1.25h-1.25v1.25v1.25h-6.25h-6.25v-1.25v-1.25h5h5v-1.25v-1.25
		h-5h-5v-1.25v-1.25h-1.25h-1.25v-2.5v-2.5h1.25h1.25V354.224z M396.049,357.974v-2.5h-3.75h-3.75v2.5v2.5h3.75h3.75V357.974z"/>
	<path fill="#EFEFEF" d="M426.049,349.224v-1.25h6.25h6.25v1.25v1.25h1.25h1.25v6.25v6.25h-1.25h-1.25v1.25v1.25h-6.25h-6.25v-1.25
		v-1.25h-1.25h-1.25v-6.25v-6.25h1.25h1.25V349.224z M436.049,356.724v-6.25h-3.75h-3.75v6.25v6.25h3.75h3.75V356.724z"/>
	<path fill="#EFEFEF" d="M443.549,357.974v-5h2.5h2.5v5v5h3.75h3.75v-5v-5h2.5h2.5v6.25v6.25h-7.5h-7.5v-1.25v-1.25h-1.25h-1.25
		V357.974z"/>
	<path fill="#EFEFEF" d="M471.049,350.474v-2.5h2.5h2.5v2.5v2.5h2.5h2.5v1.25v1.25h-2.5h-2.5v5v5h-2.5h-2.5v-5v-5h-2.5h-2.5v-1.25
		v-1.25h2.5h2.5V350.474z"/>
</g>
<g>
	<path fill="#EFEFEF" d="M440.646,113.587v-8.75h7.5h7.5v1.25v1.25h1.25h1.25v2.5v2.5h-1.25h-1.25v1.25v1.25h1.25h1.25v2.5v2.5
		h-1.25h-1.25v1.25v1.25h-7.5h-7.5V113.587z M453.146,109.837v-2.5h-3.75h-3.75v2.5v2.5h3.75h3.75V109.837z M453.146,117.337v-2.5
		h-3.75h-3.75v2.5v2.5h3.75h3.75V117.337z"/>
	<path fill="#EFEFEF" d="M463.146,116.087v-6.25h2.5h2.5v1.25v1.25h1.25h1.25v-1.25v-1.25h3.75h3.75v1.25v1.25h-3.75h-3.75v1.25
		v1.25h-1.25h-1.25v3.75v3.75h-2.5h-2.5V116.087z"/>
	<path fill="#EFEFEF" d="M483.146,111.087v-1.25h6.25h6.25v1.25v1.25h1.25h1.25v3.75v3.75h-1.25h-1.25v1.25v1.25h-6.25h-6.25v-1.25
		v-1.25h-1.25h-1.25v-3.75v-3.75h1.25h1.25V111.087z M493.146,116.087v-3.75h-3.75h-3.75v3.75v3.75h3.75h3.75V116.087z"/>
	<path fill="#EFEFEF" d="M500.646,114.837v-5h1.25h1.25v5v5h1.25h1.25v-5v-5h2.5h2.5v5v5h1.25h1.25v-5v-5h2.5h2.5v6.25v6.25h-7.5
		h-7.5v-1.25v-1.25h-1.25h-1.25V114.837z"/>
	<path fill="#EFEFEF" d="M523.146,111.087v-1.25h6.25h6.25v1.25v1.25h-5h-5v1.25v1.25h5h5v1.25v1.25h1.25h1.25v1.25v1.25h-1.25
		h-1.25v1.25v1.25h-7.5h-7.5v-1.25v-1.25h6.25h6.25v-1.25v-1.25h-5h-5v-1.25v-1.25h-1.25h-1.25v-1.25v-1.25h1.25h1.25V111.087z"/>
	<path fill="#EFEFEF" d="M543.146,111.087v-1.25h6.25h6.25v1.25v1.25h1.25h1.25v2.5v2.5h-6.25h-6.25v1.25v1.25h5h5v1.25v1.25h-6.25
		h-6.25v-1.25v-1.25h-1.25h-1.25v-3.75v-3.75h1.25h1.25V111.087z M553.146,113.587v-1.25h-3.75h-3.75v1.25v1.25h3.75h3.75V113.587z"
		/>
	<path fill="#EFEFEF" d="M410.646,137.587v-8.75h8.75h8.75v1.25v1.25h-6.25h-6.25v2.5v2.5h5h5v1.25v1.25h-5h-5v2.5v2.5h6.25h6.25
		v1.25v1.25h-8.75h-8.75V137.587z"/>
	<path fill="#EFEFEF" d="M430.646,140.087v-6.25h7.5h7.5v1.25v1.25h1.25h1.25v5v5h-2.5h-2.5v-5v-5h-3.75h-3.75v5v5h-2.5h-2.5
		V140.087z"/>
	<path fill="#EFEFEF" d="M453.146,135.087v-1.25h7.5h7.5v7.5v7.5h-2.5h-2.5v-2.5v-2.5h-5h-5v-1.25v-1.25h-1.25h-1.25v-2.5v-2.5h1.25
		h1.25V135.087z M463.146,138.837v-2.5h-3.75h-3.75v2.5v2.5h3.75h3.75V138.837z"/>
	<path fill="#EFEFEF" d="M470.646,138.837v-5h2.5h2.5v5v5h3.75h3.75v-5v-5h2.5h2.5v6.25v6.25h-7.5h-7.5v-1.25v-1.25h-1.25h-1.25
		V138.837z"/>
	<path fill="#EFEFEF" d="M495.646,135.087v-1.25h3.75h3.75v5v5h2.5h2.5v1.25v1.25h-7.5h-7.5v-1.25v-1.25h2.5h2.5v-3.75v-3.75h-1.25
		h-1.25V135.087z M498.146,130.087v-1.25h2.5h2.5v1.25v1.25h-2.5h-2.5V130.087z"/>
	<path fill="#EFEFEF" d="M513.146,140.087v-6.25h2.5h2.5v1.25v1.25h1.25h1.25v-1.25v-1.25h3.75h3.75v1.25v1.25h-3.75h-3.75v1.25
		v1.25h-1.25h-1.25v3.75v3.75h-2.5h-2.5V140.087z"/>
	<path fill="#EFEFEF" d="M535.646,135.087v-1.25h3.75h3.75v5v5h2.5h2.5v1.25v1.25h-7.5h-7.5v-1.25v-1.25h2.5h2.5v-3.75v-3.75h-1.25
		h-1.25V135.087z M538.146,130.087v-1.25h2.5h2.5v1.25v1.25h-2.5h-2.5V130.087z"/>
	<path fill="#EFEFEF" d="M553.146,135.087v-1.25h6.25h6.25v1.25v1.25h1.25h1.25v2.5v2.5h-6.25h-6.25v1.25v1.25h5h5v1.25v1.25h-6.25
		h-6.25v-1.25v-1.25h-1.25h-1.25v-3.75v-3.75h1.25h1.25V135.087z M563.146,137.587v-1.25h-3.75h-3.75v1.25v1.25h3.75h3.75V137.587z"
		/>
	<path fill="#EFEFEF" d="M573.146,135.087v-1.25h6.25h6.25v1.25v1.25h-5h-5v1.25v1.25h5h5v1.25v1.25h1.25h1.25v1.25v1.25h-1.25
		h-1.25v1.25v1.25h-7.5h-7.5v-1.25v-1.25h6.25h6.25v-1.25v-1.25h-5h-5v-1.25v-1.25h-1.25h-1.25v-1.25v-1.25h1.25h1.25V135.087z"/>
</g>
<g>
	<path fill="#EFEFEF" d="M454.535,436.648v-8.75h7.5h7.5v1.25v1.25h1.25h1.25v2.5v2.5h-1.25h-1.25v1.25v1.25h1.25h1.25v2.5v2.5
		h-1.25h-1.25v1.25v1.25h-7.5h-7.5V436.648z M467.035,432.898v-2.5h-3.75h-3.75v2.5v2.5h3.75h3.75V432.898z M467.035,440.398v-2.5
		h-3.75h-3.75v2.5v2.5h3.75h3.75V440.398z"/>
	<path fill="#EFEFEF" d="M479.535,434.148v-1.25h3.75h3.75v5v5h2.5h2.5v1.25v1.25h-7.5h-7.5v-1.25v-1.25h2.5h2.5v-3.75v-3.75h-1.25
		h-1.25V434.148z M482.035,429.148v-1.25h2.5h2.5v1.25v1.25h-2.5h-2.5V429.148z"/>
	<path fill="#EFEFEF" d="M507.035,430.398v-2.5h2.5h2.5v8.75v8.75h-7.5h-7.5v-1.25v-1.25h-1.25h-1.25v-3.75v-3.75h1.25h1.25v-1.25
		v-1.25h5h5V430.398z M507.035,439.148v-3.75h-3.75h-3.75v3.75v3.75h3.75h3.75V439.148z"/>
	<path fill="#EFEFEF" d="M544.535,429.148v-1.25h3.75h3.75v1.25v1.25h-2.5h-2.5v1.25v1.25h2.5h2.5v1.25v1.25h-2.5h-2.5v5v5h-2.5
		h-2.5v-5v-5h-2.5h-2.5v-1.25v-1.25h2.5h2.5v-1.25v-1.25h1.25h1.25V429.148z"/>
	<path fill="#EFEFEF" d="M557.035,434.148v-1.25h6.25h6.25v1.25v1.25h1.25h1.25v3.75v3.75h-1.25h-1.25v1.25v1.25h-6.25h-6.25v-1.25
		v-1.25h-1.25h-1.25v-3.75v-3.75h1.25h1.25V434.148z M567.035,439.148v-3.75h-3.75h-3.75v3.75v3.75h3.75h3.75V439.148z"/>
	<path fill="#EFEFEF" d="M577.035,439.148v-6.25h2.5h2.5v1.25v1.25h1.25h1.25v-1.25v-1.25h3.75h3.75v1.25v1.25h-3.75h-3.75v1.25
		v1.25h-1.25h-1.25v3.75v3.75h-2.5h-2.5V439.148z"/>
	<path fill="#EFEFEF" d="M454.535,460.648v-8.75h8.75h8.75v1.25v1.25h-6.25h-6.25v2.5v2.5h5h5v1.25v1.25h-5h-5v2.5v2.5h6.25h6.25
		v1.25v1.25h-8.75h-8.75V460.648z"/>
	<path fill="#EFEFEF" d="M474.535,463.148v-6.25h7.5h7.5v1.25v1.25h1.25h1.25v5v5h-2.5h-2.5v-5v-5h-3.75h-3.75v5v5h-2.5h-2.5
		V463.148z"/>
	<path fill="#EFEFEF" d="M497.035,458.148v-1.25h7.5h7.5v7.5v7.5h-2.5h-2.5v-2.5v-2.5h-5h-5v-1.25v-1.25h-1.25h-1.25v-2.5v-2.5h1.25
		h1.25V458.148z M507.035,461.898v-2.5h-3.75h-3.75v2.5v2.5h3.75h3.75V461.898z"/>
	<path fill="#EFEFEF" d="M514.535,461.898v-5h2.5h2.5v5v5h3.75h3.75v-5v-5h2.5h2.5v6.25v6.25h-7.5h-7.5v-1.25v-1.25h-1.25h-1.25
		V461.898z"/>
	<path fill="#EFEFEF" d="M539.535,458.148v-1.25h3.75h3.75v5v5h2.5h2.5v1.25v1.25h-7.5h-7.5v-1.25v-1.25h2.5h2.5v-3.75v-3.75h-1.25
		h-1.25V458.148z M542.035,453.148v-1.25h2.5h2.5v1.25v1.25h-2.5h-2.5V453.148z"/>
	<path fill="#EFEFEF" d="M557.035,463.148v-6.25h2.5h2.5v1.25v1.25h1.25h1.25v-1.25v-1.25h3.75h3.75v1.25v1.25h-3.75h-3.75v1.25
		v1.25h-1.25h-1.25v3.75v3.75h-2.5h-2.5V463.148z"/>
	<path fill="#EFEFEF" d="M574.535,460.648v-3.75h2.5h2.5v3.75v3.75h3.75h3.75v-3.75v-3.75h2.5h2.5v6.25v6.25h-1.25h-1.25v1.25v1.25
		h-6.25h-6.25v-1.25v-1.25h5h5v-1.25v-1.25h-5h-5v-1.25v-1.25h-1.25h-1.25V460.648z"/>
</g>
<g>
	<path fill="#EFEFEF" d="M96.001,337.424v-8.75h7.5h7.5v1.25v1.25h1.25h1.25v2.5v2.5h-1.25h-1.25v1.25v1.25h1.25h1.25v2.5v2.5h-1.25
		h-1.25v1.25v1.25h-7.5h-7.5V337.424z M108.501,333.674v-2.5h-3.75h-3.75v2.5v2.5h3.75h3.75V333.674z M108.501,341.174v-2.5h-3.75
		h-3.75v2.5v2.5h3.75h3.75V341.174z"/>
	<path fill="#EFEFEF" d="M116.001,338.674v-5h2.5h2.5v5v5h3.75h3.75v-5v-5h2.5h2.5v6.25v6.25h-7.5h-7.5v-1.25v-1.25h-1.25h-1.25
		V338.674z"/>
	<path fill="#EFEFEF" d="M136.001,337.424v-3.75h2.5h2.5v3.75v3.75h3.75h3.75v-3.75v-3.75h2.5h2.5v6.25v6.25h-1.25h-1.25v1.25v1.25
		h-6.25h-6.25v-1.25v-1.25h5h5v-1.25v-1.25h-5h-5v-1.25v-1.25h-1.25h-1.25V337.424z"/>
	<path fill="#EFEFEF" d="M158.501,334.924v-1.25h6.25h6.25v1.25v1.25h1.25h1.25v2.5v2.5h-6.25h-6.25v1.25v1.25h5h5v1.25v1.25h-6.25
		h-6.25v-1.25v-1.25h-1.25h-1.25v-3.75v-3.75h1.25h1.25V334.924z M168.501,337.424v-1.25h-3.75h-3.75v1.25v1.25h3.75h3.75V337.424z"
		/>
	<path fill="#EFEFEF" d="M178.501,339.924v-6.25h2.5h2.5v1.25v1.25h1.25h1.25v-1.25v-1.25h3.75h3.75v1.25v1.25h-3.75h-3.75v1.25
		v1.25h-1.25h-1.25v3.75v3.75h-2.5h-2.5V339.924z"/>
</g>
<g>
	<path fill="#EFEFEF" d="M616.202,324.207v-1.25h5h5v1.25v1.25h1.25h1.25v1.25v1.25h-2.5h-2.5v-1.25v-1.25h-2.5h-2.5v2.5v2.5h5h5
		v1.25v1.25h1.25h1.25v2.5v2.5h-1.25h-1.25v1.25v1.25h-6.25h-6.25v-1.25v-1.25h-1.25h-1.25v-1.25v-1.25h2.5h2.5v1.25v1.25h3.75h3.75
		v-2.5v-2.5h-5h-5v-1.25v-1.25h-1.25h-1.25v-2.5v-2.5h1.25h1.25V324.207z"/>
	<path fill="#EFEFEF" d="M636.202,329.207v-1.25h6.25h6.25v1.25v1.25h1.25h1.25v2.5v2.5h-6.25h-6.25v1.25v1.25h5h5v1.25v1.25h-6.25
		h-6.25v-1.25v-1.25h-1.25h-1.25v-3.75v-3.75h1.25h1.25V329.207z M646.202,331.707v-1.25h-3.75h-3.75v1.25v1.25h3.75h3.75V331.707z"
		/>
	<path fill="#EFEFEF" d="M658.702,324.207v-1.25h3.75h3.75v7.5v7.5h2.5h2.5v1.25v1.25h-7.5h-7.5v-1.25v-1.25h2.5h2.5v-6.25v-6.25
		h-1.25h-1.25V324.207z"/>
	<path fill="#EFEFEF" d="M678.702,324.207v-1.25h3.75h3.75v7.5v7.5h2.5h2.5v1.25v1.25h-7.5h-7.5v-1.25v-1.25h2.5h2.5v-6.25v-6.25
		h-1.25h-1.25V324.207z"/>
	<path fill="#EFEFEF" d="M696.202,329.207v-1.25h6.25h6.25v1.25v1.25h1.25h1.25v2.5v2.5h-6.25h-6.25v1.25v1.25h5h5v1.25v1.25h-6.25
		h-6.25v-1.25v-1.25h-1.25h-1.25v-3.75v-3.75h1.25h1.25V329.207z M706.202,331.707v-1.25h-3.75h-3.75v1.25v1.25h3.75h3.75V331.707z"
		/>
	<path fill="#EFEFEF" d="M716.202,334.207v-6.25h2.5h2.5v1.25v1.25h1.25h1.25v-1.25v-1.25h3.75h3.75v1.25v1.25h-3.75h-3.75v1.25
		v1.25h-1.25h-1.25v3.75v3.75h-2.5h-2.5V334.207z"/>
</g>
<g>
	<path fill="#EFEFEF" d="M272.644,430.771v-1.25h5h5v1.25v1.25h1.25h1.25v1.25v1.25h-2.5h-2.5v-1.25v-1.25h-2.5h-2.5v2.5v2.5h5h5
		v1.25v1.25h1.25h1.25v2.5v2.5h-1.25h-1.25v1.25v1.25h-6.25h-6.25v-1.25v-1.25h-1.25h-1.25v-1.25v-1.25h2.5h2.5v1.25v1.25h3.75h3.75
		v-2.5v-2.5h-5h-5v-1.25v-1.25h-1.25h-1.25v-2.5v-2.5h1.25h1.25V430.771z"/>
	<path fill="#EFEFEF" d="M290.144,439.521v-5h2.5h2.5v5v5h3.75h3.75v-5v-5h2.5h2.5v6.25v6.25h-7.5h-7.5v-1.25v-1.25h-1.25h-1.25
		V439.521z"/>
	<path fill="#EFEFEF" d="M310.144,437.021v-7.5h2.5h2.5v2.5v2.5h5h5v1.25v1.25h1.25h1.25v3.75v3.75h-1.25h-1.25v1.25v1.25h-6.25
		h-6.25v-1.25v-1.25h-1.25h-1.25V437.021z M322.644,440.771v-3.75h-3.75h-3.75v3.75v3.75h3.75h3.75V440.771z"/>
	<path fill="#EFEFEF" d="M330.144,440.771v-6.25h7.5h7.5v1.25v1.25h1.25h1.25v5v5h-2.5h-2.5v-5v-5h-1.25h-1.25v5v5h-2.5h-2.5v-5v-5
		h-1.25h-1.25v5v5h-1.25h-1.25V440.771z"/>
	<path fill="#EFEFEF" d="M355.144,435.771v-1.25h3.75h3.75v5v5h2.5h2.5v1.25v1.25h-7.5h-7.5v-1.25v-1.25h2.5h2.5v-3.75v-3.75h-1.25
		h-1.25V435.771z M357.644,430.771v-1.25h2.5h2.5v1.25v1.25h-2.5h-2.5V430.771z"/>
	<path fill="#EFEFEF" d="M377.644,432.021v-2.5h2.5h2.5v2.5v2.5h2.5h2.5v1.25v1.25h-2.5h-2.5v5v5h-2.5h-2.5v-5v-5h-2.5h-2.5v-1.25
		v-1.25h2.5h2.5V432.021z"/>
	<path fill="#EFEFEF" d="M260.144,462.271v-8.75h8.75h8.75v1.25v1.25h-6.25h-6.25v2.5v2.5h5h5v1.25v1.25h-5h-5v2.5v2.5h6.25h6.25
		v1.25v1.25h-8.75h-8.75V462.271z"/>
	<path fill="#EFEFEF" d="M280.144,464.771v-6.25h7.5h7.5v1.25v1.25h1.25h1.25v5v5h-2.5h-2.5v-5v-5h-3.75h-3.75v5v5h-2.5h-2.5
		V464.771z"/>
	<path fill="#EFEFEF" d="M302.644,459.771v-1.25h7.5h7.5v7.5v7.5h-2.5h-2.5v-2.5v-2.5h-5h-5v-1.25v-1.25h-1.25h-1.25v-2.5v-2.5h1.25
		h1.25V459.771z M312.644,463.521v-2.5h-3.75h-3.75v2.5v2.5h3.75h3.75V463.521z"/>
	<path fill="#EFEFEF" d="M320.144,463.521v-5h2.5h2.5v5v5h3.75h3.75v-5v-5h2.5h2.5v6.25v6.25h-7.5h-7.5v-1.25v-1.25h-1.25h-1.25
		V463.521z"/>
	<path fill="#EFEFEF" d="M345.144,459.771v-1.25h3.75h3.75v5v5h2.5h2.5v1.25v1.25h-7.5h-7.5v-1.25v-1.25h2.5h2.5v-3.75v-3.75h-1.25
		h-1.25V459.771z M347.644,454.771v-1.25h2.5h2.5v1.25v1.25h-2.5h-2.5V454.771z"/>
	<path fill="#EFEFEF" d="M362.644,464.771v-6.25h2.5h2.5v1.25v1.25h1.25h1.25v-1.25v-1.25h3.75h3.75v1.25v1.25h-3.75h-3.75v1.25
		v1.25h-1.25h-1.25v3.75v3.75h-2.5h-2.5V464.771z"/>
	<path fill="#EFEFEF" d="M380.144,462.271v-3.75h2.5h2.5v3.75v3.75h3.75h3.75v-3.75v-3.75h2.5h2.5v6.25v6.25h-1.25h-1.25v1.25v1.25
		h-6.25h-6.25v-1.25v-1.25h5h5v-1.25v-1.25h-5h-5v-1.25v-1.25h-1.25h-1.25V462.271z"/>
</g>
<g>
	<path fill="#EFEFEF" d="M259.295,110.235v-8.75h7.5h7.5v1.25v1.25h1.25h1.25v3.75v3.75h-1.25h-1.25v1.25v1.25h-5h-5v2.5v2.5h-2.5
		h-2.5V110.235z M271.795,107.735v-3.75h-3.75h-3.75v3.75v3.75h3.75h3.75V107.735z"/>
	<path fill="#EFEFEF" d="M281.795,107.735v-1.25h6.25h6.25v1.25v1.25h1.25h1.25v5v5h-7.5h-7.5v-1.25v-1.25h-1.25h-1.25v-1.25v-1.25
		h1.25h1.25v-1.25v-1.25h5h5v-1.25v-1.25h-5h-5V107.735z M291.795,115.235v-1.25h-3.75h-3.75v1.25v1.25h3.75h3.75V115.235z"/>
	<path fill="#EFEFEF" d="M299.295,110.235v-3.75h2.5h2.5v3.75v3.75h3.75h3.75v-3.75v-3.75h2.5h2.5v6.25v6.25h-1.25h-1.25v1.25v1.25
		h-6.25h-6.25v-1.25v-1.25h5h5v-1.25v-1.25h-5h-5v-1.25v-1.25h-1.25h-1.25V110.235z"/>
	<path fill="#EFEFEF" d="M349.295,102.735v-1.25h3.75h3.75v1.25v1.25h-2.5h-2.5v1.25v1.25h2.5h2.5v1.25v1.25h-2.5h-2.5v5v5h-2.5
		h-2.5v-5v-5h-2.5h-2.5v-1.25v-1.25h2.5h2.5v-1.25v-1.25h1.25h1.25V102.735z"/>
	<path fill="#EFEFEF" d="M361.795,107.735v-1.25h6.25h6.25v1.25v1.25h1.25h1.25v3.75v3.75h-1.25h-1.25v1.25v1.25h-6.25h-6.25v-1.25
		v-1.25h-1.25h-1.25v-3.75v-3.75h1.25h1.25V107.735z M371.795,112.735v-3.75h-3.75h-3.75v3.75v3.75h3.75h3.75V112.735z"/>
	<path fill="#EFEFEF" d="M381.795,112.735v-6.25h2.5h2.5v1.25v1.25h1.25h1.25v-1.25v-1.25h3.75h3.75v1.25v1.25h-3.75h-3.75v1.25
		v1.25h-1.25h-1.25v3.75v3.75h-2.5h-2.5V112.735z"/>
	<path fill="#EFEFEF" d="M304.295,126.735v-1.25h5h5v1.25v1.25h1.25h1.25v1.25v1.25h-2.5h-2.5v-1.25v-1.25h-2.5h-2.5v1.25v1.25
		h-1.25h-1.25v3.75v3.75h1.25h1.25v1.25v1.25h2.5h2.5v-1.25v-1.25h2.5h2.5v1.25v1.25h-1.25h-1.25v1.25v1.25h-5h-5v-1.25v-1.25h-1.25
		h-1.25v-1.25v-1.25h-1.25h-1.25v-3.75v-3.75h1.25h1.25v-1.25v-1.25h1.25h1.25V126.735z"/>
	<path fill="#EFEFEF" d="M321.795,131.735v-1.25h6.25h6.25v1.25v1.25h1.25h1.25v5v5h-7.5h-7.5v-1.25v-1.25h-1.25h-1.25v-1.25v-1.25
		h1.25h1.25v-1.25v-1.25h5h5v-1.25v-1.25h-5h-5V131.735z M331.795,139.235v-1.25h-3.75h-3.75v1.25v1.25h3.75h3.75V139.235z"/>
	<path fill="#EFEFEF" d="M341.795,136.735v-6.25h2.5h2.5v1.25v1.25h1.25h1.25v-1.25v-1.25h3.75h3.75v1.25v1.25h-3.75h-3.75v1.25
		v1.25h-1.25h-1.25v3.75v3.75h-2.5h-2.5V136.735z"/>
</g>
<line fill="none" stroke="#D62F26" stroke-width="6" stroke-miterlimit="10" x1="184.502" y1="289.175" x2="378.423" y2="230.495"/>
<line fill="none" stroke="#D62F26" stroke-width="6" stroke-miterlimit="10" x1="184.502" y1="289.175" x2="378.423" y2="342.877"/>
<line fill="#3A3A3A" stroke="#25AF4B" stroke-width="6" stroke-miterlimit="10" x1="636.31" y1="291.347" x2="439.725" y2="230.495"/>
<line fill="#3A3A3A" stroke="#25AF4B" stroke-width="6" stroke-miterlimit="10" x1="636.31" y1="291.347" x2="439.725" y2="343.101"/>
<line fill="#3A3A3A" stroke="#25AF4B" stroke-width="6" stroke-miterlimit="10" x1="502.62" y1="183.171" x2="636.31" y2="291.347"/>
<line fill="none" stroke="#D62F26" stroke-width="6" stroke-miterlimit="10" x1="184.502" y1="289.175" x2="310.629" y2="406.772"/>
<line fill="#3A3A3A" stroke="#25AF4B" stroke-width="6" stroke-miterlimit="10" x1="636.31" y1="291.347" x2="514.508" y2="414"/>
<line fill="none" stroke="#D62F26" stroke-width="6" stroke-miterlimit="10" x1="184.502" y1="289.175" x2="318.865" y2="179.082"/>
<rect x="229" y="84" fill="none" stroke="#9B9A9A" stroke-width="7" width="359" height="433"/>
</svg>
