<?xml version="1.0" encoding="utf-8"?>
<!-- Generator: Adobe Illustrator 17.0.1, SVG Export Plug-In . SVG Version: 6.00 Build 0)  -->
<!DOCTYPE svg PUBLIC "-//W3C//DTD SVG 1.1//EN" "http://www.w3.org/Graphics/SVG/1.1/DTD/svg11.dtd">
<svg version="1.1" xmlns="http://www.w3.org/2000/svg" xmlns:xlink="http://www.w3.org/1999/xlink" x="0px" y="0px" width="1000px"
	 height="300px" viewBox="0 0 1000 300" enable-background="new 0 0 1000 300" xml:space="preserve">
<g id="Layer_2" display="none">
	<rect display="inline" fill="#434343" width="1000" height="300"/>
</g>
<g id="Layer_1">
	<g>
		<path fill="#87712C" d="M48.118,57.491h92.509l46.255,46.255v15.418H32.699V72.909h15.418 M48.118,134.582h92.509V150h46.255
			v15.418H202.3v30.837H17.281v-30.837h15.418V150h15.418 M32.699,242.509h46.255v30.837H17.281v-15.418h15.418 M140.627,242.509
			h46.255v15.418H202.3v15.418h-61.673"/>
		<path fill="#D62F26" d="M63.536,26.654h77.091v15.418h46.255v15.418H48.118V42.072h15.418 M78.954,134.582h15.418v30.836h30.836
			V150h15.418v30.836h15.418v30.837h15.418v30.836h-46.255v-15.418H94.372v15.418H48.118v-30.836h15.418v-30.837h15.418"/>
		<path fill="#F8983B" d="M48.118,72.909h15.418v30.836H48.118 M94.372,57.491h30.836v30.836h15.418v15.418h-15.418v15.418h46.255
			v15.418H63.536v-30.836h30.836V88.327H78.954V72.909h15.418 M140.627,57.491h15.418v15.418h30.836v15.418H202.3v15.418h-46.255
			V88.327h-15.418 M17.281,180.836h30.836v15.418h15.418v15.418H48.118v15.418H17.281 M78.954,180.836h15.418v15.418H78.954
			 M125.209,180.836h15.418v15.418h-15.418 M171.464,180.836H202.3v46.255h-30.837v-15.418h-15.418v-15.418h15.418"/>
	</g>
	<path fill="#25AF4B" d="M941.713,73.628h15.274v45.823H804.243v-15.274l45.823-45.823h91.647 M941.713,150h15.274v15.274h15.274
		v30.549H788.969v-30.549h15.274V150h45.823v-15.274h91.647 M956.987,256.921h15.274v15.274h-61.098v-30.549h45.823
		 M850.066,272.195h-61.098v-15.274h15.274v-15.274h45.823"/>
	<path fill="#E2E2E2" d="M926.439,43.079h15.274v15.274h-137.47V43.079h45.823V27.805h76.372 M911.164,180.549h15.274v30.549h15.274
		v30.549H895.89v-15.274h-30.549v15.274h-45.823v-30.549h15.274v-30.549h15.274V150h15.274v15.274h30.549v-30.549h15.274"/>
	<path fill="#F8983B" d="M941.713,104.177h-15.274V73.628h15.274 M895.89,73.628h15.274v15.274H895.89v15.274h30.549v30.549H819.517
		v-15.274h45.823v-15.274h-15.274V88.902h15.274V58.353h30.549 M850.066,88.902h-15.274v15.274h-45.823V88.902h15.274V73.628h30.549
		V58.353h15.274 M972.262,226.372h-30.549v-15.274h-15.274v-15.274h15.274v-15.274h30.549 M911.164,195.823H895.89v-15.274h15.274
		 M865.341,195.823h-15.274v-15.274h15.274 M819.517,195.823h15.274v15.274h-15.274v15.274h-30.549v-45.823h30.549"/>
	<g>
		<path fill="#EFEFEF" d="M220.59,61.216V26.654h29.625h29.625v4.938v4.938h4.938h4.938v14.813v14.813h-9.875h-9.875v4.938v4.938
			h4.938h4.938v4.938v4.938h4.938h4.938v4.938v4.938h-14.813H260.09v-4.938v-4.938h-4.938h-4.938v-4.938v-4.938h-4.938h-4.938v9.875
			v9.875h-9.875h-9.875V61.216z M269.965,46.404v-9.875h-14.813H240.34v14.813v14.813h9.875h9.875v-4.938v-4.938h4.938h4.938V46.404
			z"/>
		<path fill="#EFEFEF" d="M299.59,61.216V26.654h34.563h34.563v4.938v4.938h-24.688H319.34v9.875v9.875h19.75h19.75v4.938v4.938
			h-19.75h-19.75v9.875v9.875h24.688h24.688v4.938v4.938h-34.563H299.59V61.216z"/>
		<path fill="#EFEFEF" d="M378.59,46.404v-19.75h9.875h9.875v14.813v14.813h4.938h4.938v4.938v4.938h4.938h4.938v-4.938v-4.938
			h4.938h4.938V41.466V26.654h9.875h9.875v19.75v19.75h-4.938h-4.938v4.938v4.938h-4.938h-4.938v4.938v4.938h-4.938h-4.938v4.938
			v4.938h-4.938h-4.938v-4.938v-4.938h-4.938h-4.938v-4.938v-4.938h-4.938h-4.938v-4.938v-4.938h-4.938h-4.938V46.404z"/>
		<path fill="#EFEFEF" d="M457.59,61.216V26.654h34.563h34.562v4.938v4.938h-24.688H477.34v9.875v9.875h19.75h19.75v4.938v4.938
			h-19.75h-19.75v9.875v9.875h24.687h24.688v4.938v4.938h-34.562H457.59V61.216z"/>
		<path fill="#EFEFEF" d="M536.59,61.216V26.654h29.625h29.625v4.938v4.938h4.938h4.938v14.813v14.813h-9.875h-9.875v4.938v4.938
			h4.938h4.938v4.938v4.938h4.938h4.938v4.938v4.938h-14.813H576.09v-4.938v-4.938h-4.938h-4.938v-4.938v-4.938h-4.938h-4.938v9.875
			v9.875h-9.875h-9.875V61.216z M585.965,46.404v-9.875h-14.813H556.34v14.813v14.813h9.875h9.875v-4.938v-4.938h4.938h4.938V46.404
			z"/>
		<path fill="#EFEFEF" d="M625.465,31.591v-4.938h19.75h19.75v4.938v4.938h4.938h4.938v4.938v4.938h-9.875h-9.875v-4.938v-4.938
			h-9.875h-9.875v9.875v9.875h19.75h19.75v4.938v4.938h4.938h4.938v9.875v9.875h-4.938h-4.938v4.938v4.938h-24.688h-24.688v-4.938
			v-4.938h-4.938h-4.938v-4.938v-4.938h9.875h9.875v4.938v4.938h14.813h14.813v-9.875v-9.875h-19.75h-19.75v-4.938v-4.938h-4.938
			h-4.938v-9.875v-9.875h4.938h4.938V31.591z"/>
		<path fill="#EFEFEF" d="M694.59,61.216V26.654h34.563h34.563v4.938v4.938h-24.688H714.34v9.875v9.875h19.75h19.75v4.938v4.938
			h-19.75h-19.75v9.875v9.875h24.688h24.688v4.938v4.938h-34.563H694.59V61.216z"/>
		<path fill="#EFEFEF" d="M398.34,126.392v-4.938h19.75h19.75v4.938v4.938h4.938h4.938v4.938v4.938h-9.875h-9.875v-4.938v-4.938
			h-9.875h-9.875v4.938v4.938h-4.938h-4.938v14.813v14.813h4.938h4.938v4.938v4.938h9.875h9.875v-4.938v-4.938h9.875h9.875v4.938
			v4.938h-4.938h-4.938v4.938v4.938h-19.75h-19.75v-4.938v-4.938h-4.938h-4.938v-4.938v-4.938h-4.938h-4.938v-14.813v-14.813h4.938
			h4.938v-4.938v-4.938h4.938h4.938V126.392z"/>
		<path fill="#EFEFEF" d="M477.34,126.392v-4.938h14.813h14.812v4.938v4.938h4.938h4.938v4.938v4.938h4.938h4.938v24.688v24.688
			h-9.875h-9.875v-9.875v-9.875h-14.812H477.34v9.875v9.875h-9.875h-9.875v-24.688v-24.688h4.938h4.938v-4.938v-4.938h4.938h4.938
			V126.392z M497.09,136.267v-4.938h-4.938h-4.938v4.938v4.938h-4.938h-4.938v9.875v9.875h14.813h14.812v-9.875v-9.875h-4.938
			h-4.937V136.267z"/>
		<path fill="#EFEFEF" d="M536.59,156.017v-34.563h29.625h29.625v4.938v4.938h4.938h4.938v14.813v14.813h-9.875h-9.875v4.938v4.938
			h4.938h4.938v4.938v4.938h4.938h4.938v4.938v4.938h-14.813H576.09v-4.938v-4.938h-4.938h-4.938v-4.938v-4.938h-4.938h-4.938v9.875
			v9.875h-9.875h-9.875V156.017z M585.965,141.204v-9.875h-14.813H556.34v14.813v14.813h9.875h9.875v-4.938v-4.938h4.938h4.938
			V141.204z"/>
		<path fill="#EFEFEF" d="M378.59,250.816v-34.563h29.625h29.625v4.938v4.938h4.938h4.938v9.875v9.875h-4.938h-4.938v4.938v4.938
			h4.938h4.938v9.875v9.875h-4.938h-4.938v4.938v4.938h-29.625H378.59V250.816z M427.965,236.004v-9.875h-14.813H398.34v9.875v9.875
			h14.813h14.813V236.004z M427.965,265.629v-9.875h-14.813H398.34v9.875v9.875h14.813h14.813V265.629z"/>
		<path fill="#EFEFEF" d="M477.34,221.191v-4.938h14.813h14.812v4.938v4.938h4.938h4.938v4.938v4.938h4.938h4.938v24.688v24.688
			h-9.875h-9.875v-9.875v-9.875h-14.812H477.34v9.875v9.875h-9.875h-9.875v-24.688v-24.688h4.938h4.938v-4.938v-4.938h4.938h4.938
			V221.191z M497.09,231.066v-4.938h-4.938h-4.938v4.938v4.938h-4.938h-4.938v9.875v9.875h14.813h14.812v-9.875v-9.875h-4.938
			h-4.937V231.066z"/>
		<path fill="#EFEFEF" d="M546.465,231.066v-14.813h9.875h9.875v14.813v14.813h9.875h9.875v-14.813v-14.813h9.875h9.875v14.813
			v14.813h-4.938h-4.938v4.938v4.938h-4.938h-4.938v14.813v14.813h-9.875h-9.875v-14.813v-14.813h-4.938h-4.938v-4.938v-4.938
			h-4.938h-4.938V231.066z"/>
	</g>
</g>
</svg>
